<?xml version="1.0" encoding="UTF-8" standalone="no"?>
<svg
   xmlns:dc="http://purl.org/dc/elements/1.1/"
   xmlns:cc="http://creativecommons.org/ns#"
   xmlns:rdf="http://www.w3.org/1999/02/22-rdf-syntax-ns#"
   xmlns:svg="http://www.w3.org/2000/svg"
   xmlns="http://www.w3.org/2000/svg"
   xmlns:sodipodi="http://sodipodi.sourceforge.net/DTD/sodipodi-0.dtd"
   xmlns:inkscape="http://www.inkscape.org/namespaces/inkscape"
   version="1.1"
   id="svg2"
   width="676"
   height="676"
   viewBox="0 0 676 676"
   sodipodi:docname="nrel.svg"
   inkscape:version="1.0.1 (3bc2e813f5, 2020-09-07)">
  <metadata
     id="metadata8">
    <rdf:RDF>
      <cc:Work
         rdf:about="">
        <dc:format>image/svg+xml</dc:format>
        <dc:type
           rdf:resource="http://purl.org/dc/dcmitype/StillImage" />
        <dc:title></dc:title>
      </cc:Work>
    </rdf:RDF>
  </metadata>
  <defs
     id="defs6" />
  <sodipodi:namedview
     pagecolor="#ffffff"
     bordercolor="#666666"
     borderopacity="1"
     objecttolerance="10"
     gridtolerance="10"
     guidetolerance="10"
     inkscape:pageopacity="0"
     inkscape:pageshadow="2"
     inkscape:window-width="3840"
     inkscape:window-height="2066"
     id="namedview4"
     showgrid="false"
     inkscape:zoom="0.4471393"
     inkscape:cx="1608"
     inkscape:cy="338"
     inkscape:window-x="1609"
     inkscape:window-y="-11"
     inkscape:window-maximized="1"
     inkscape:current-layer="g10" />
  <g
     inkscape:groupmode="layer"
     inkscape:label="Image"
     id="g10">
    <g
       id="g16"
       style="opacity:1"
       transform="translate(29.073713,968.3783)">
      <path
         style="color:#000000;font-style:normal;font-variant:normal;font-weight:normal;font-stretch:normal;font-size:medium;line-height:normal;font-family:sans-serif;font-variant-ligatures:normal;font-variant-position:normal;font-variant-caps:normal;font-variant-numeric:normal;font-variant-alternates:normal;font-variant-east-asian:normal;font-feature-settings:normal;font-variation-settings:normal;text-indent:0;text-align:start;text-decoration:none;text-decoration-line:none;text-decoration-style:solid;text-decoration-color:#000000;letter-spacing:normal;word-spacing:normal;text-transform:none;writing-mode:lr-tb;direction:ltr;text-orientation:mixed;dominant-baseline:auto;baseline-shift:baseline;text-anchor:start;white-space:normal;shape-padding:0;shape-margin:0;inline-size:0;clip-rule:nonzero;display:inline;overflow:visible;visibility:visible;isolation:auto;mix-blend-mode:normal;color-interpolation:sRGB;color-interpolation-filters:linearRGB;solid-color:#000000;solid-opacity:1;vector-effect:none;fill:#0076be;fill-opacity:1;fill-rule:nonzero;stroke:none;stroke-width:1.33333;stroke-linecap:butt;stroke-linejoin:miter;stroke-miterlimit:4;stroke-dasharray:none;stroke-dashoffset:0;stroke-opacity:1;color-rendering:auto;image-rendering:auto;shape-rendering:auto;text-rendering:auto;enable-background:accumulate;stop-color:#000000;stop-opacity:1"
         d="m 233.20537,-933.23978 v -12.90524 l 9,-1.58866 c 22.31743,-3.93942 39.94983,-5.45403 63.66667,-5.46893 26.34849,-0.0165 39.05301,0.9799 61,4.78437 l 13,2.25353 v 13.03657 13.03657 l -4.33333,-1.27013 c -11.92478,-3.49525 -38.23963,-6.78474 -59.66667,-7.45866 -24.98097,-0.78569 -50.14224,1.34576 -71.66667,6.07099 l -11,2.41482 z"
         id="path60" />
      <path
         style="color:#000000;font-style:normal;font-variant:normal;font-weight:normal;font-stretch:normal;font-size:medium;line-height:normal;font-family:sans-serif;font-variant-ligatures:normal;font-variant-position:normal;font-variant-caps:normal;font-variant-numeric:normal;font-variant-alternates:normal;font-variant-east-asian:normal;font-feature-settings:normal;font-variation-settings:normal;text-indent:0;text-align:start;text-decoration:none;text-decoration-line:none;text-decoration-style:solid;text-decoration-color:#000000;letter-spacing:normal;word-spacing:normal;text-transform:none;writing-mode:lr-tb;direction:ltr;text-orientation:mixed;dominant-baseline:auto;baseline-shift:baseline;text-anchor:start;white-space:normal;shape-padding:0;shape-margin:0;inline-size:0;clip-rule:nonzero;display:inline;overflow:visible;visibility:visible;isolation:auto;mix-blend-mode:normal;color-interpolation:sRGB;color-interpolation-filters:linearRGB;solid-color:#000000;solid-opacity:1;vector-effect:none;fill:#0076be;fill-opacity:1;fill-rule:nonzero;stroke:none;stroke-width:1.33333;stroke-linecap:butt;stroke-linejoin:miter;stroke-miterlimit:4;stroke-dasharray:none;stroke-dashoffset:0;stroke-opacity:1;color-rendering:auto;image-rendering:auto;shape-rendering:auto;text-rendering:auto;enable-background:accumulate;stop-color:#000000;stop-opacity:1"
         d="m 233.20537,-867.98216 v -37.04285 l 9.57928,-2.17877 c 22.71415,-5.16622 36.2316,-6.53306 64.42072,-6.51398 28.33762,0.0192 41.05254,1.35529 64.53628,6.7817 l 9.86962,2.28058 -0.86962,27.92334 c -0.47828,15.35785 -0.86961,31.99429 -0.86961,36.96989 v 9.04653 l -7,-2.40688 c -38.53861,-13.25116 -85.83448,-13.80039 -127.33333,-1.47867 l -12.33334,3.66198 z"
         id="path58" />
      <path
         style="color:#000000;font-style:normal;font-variant:normal;font-weight:normal;font-stretch:normal;font-size:medium;line-height:normal;font-family:sans-serif;font-variant-ligatures:normal;font-variant-position:normal;font-variant-caps:normal;font-variant-numeric:normal;font-variant-alternates:normal;font-variant-east-asian:normal;font-feature-settings:normal;font-variation-settings:normal;text-indent:0;text-align:start;text-decoration:none;text-decoration-line:none;text-decoration-style:solid;text-decoration-color:#000000;letter-spacing:normal;word-spacing:normal;text-transform:none;writing-mode:lr-tb;direction:ltr;text-orientation:mixed;dominant-baseline:auto;baseline-shift:baseline;text-anchor:start;white-space:normal;shape-padding:0;shape-margin:0;inline-size:0;clip-rule:nonzero;display:inline;overflow:visible;visibility:visible;isolation:auto;mix-blend-mode:normal;color-interpolation:sRGB;color-interpolation-filters:linearRGB;solid-color:#000000;solid-opacity:1;vector-effect:none;fill:#0076be;fill-opacity:1;fill-rule:nonzero;stroke:none;stroke-width:1.33333;stroke-linecap:butt;stroke-linejoin:miter;stroke-miterlimit:4;stroke-dasharray:none;stroke-dashoffset:0;stroke-opacity:1;color-rendering:auto;image-rendering:auto;shape-rendering:auto;text-rendering:auto;enable-background:accumulate;stop-color:#000000;stop-opacity:1"
         d="m 631.87204,-766.55289 c 0,-2.24033 -14.16021,-30.7355 -21.4442,-43.15304 l -6.92205,-11.8005 -19.48354,19.39465 -19.48354,19.39465 -4.59158,-7.54653 c -19.76149,-32.47925 -60.73405,-73.40054 -92.54073,-92.42496 l -7.54147,-4.51074 19.45684,-19.48932 19.45684,-19.48933 -10.45329,-6.00166 c -20.74285,-11.90932 -23.48128,-13.35955 -34.88108,-18.47245 l -11.5722,-5.19023 95.66667,-0.0315 95.66666,-0.0315 v 95.33333 c 0,52.43334 -0.3,95.33334 -0.66666,95.33334 -0.36667,0 -0.66667,-0.59136 -0.66667,-1.31414 z"
         id="path56" />
      <path
         style="color:#000000;font-style:normal;font-variant:normal;font-weight:normal;font-stretch:normal;font-size:medium;line-height:normal;font-family:sans-serif;font-variant-ligatures:normal;font-variant-position:normal;font-variant-caps:normal;font-variant-numeric:normal;font-variant-alternates:normal;font-variant-east-asian:normal;font-feature-settings:normal;font-variation-settings:normal;text-indent:0;text-align:start;text-decoration:none;text-decoration-line:none;text-decoration-style:solid;text-decoration-color:#000000;letter-spacing:normal;word-spacing:normal;text-transform:none;writing-mode:lr-tb;direction:ltr;text-orientation:mixed;dominant-baseline:auto;baseline-shift:baseline;text-anchor:start;white-space:normal;shape-padding:0;shape-margin:0;inline-size:0;clip-rule:nonzero;display:inline;overflow:visible;visibility:visible;isolation:auto;mix-blend-mode:normal;color-interpolation:sRGB;color-interpolation-filters:linearRGB;solid-color:#000000;solid-opacity:1;vector-effect:none;fill:#0076be;fill-opacity:1;fill-rule:nonzero;stroke:none;stroke-width:1.33333;stroke-linecap:butt;stroke-linejoin:miter;stroke-miterlimit:4;stroke-dasharray:none;stroke-dashoffset:0;stroke-opacity:1;color-rendering:auto;image-rendering:auto;shape-rendering:auto;text-rendering:auto;enable-background:accumulate;stop-color:#000000;stop-opacity:1"
         d="m -20.106508,-859.57209 -0.02145,-96.33333 95.666667,0.0396 95.666661,0.0396 -16.3447,7.87776 c -16.84068,8.11682 -38.98863,20.86933 -38.98863,22.44917 0,0.4916 8.45629,9.36523 18.79176,19.71917 l 18.79176,18.82535 -7.12509,4.36734 c -31.76755,19.47199 -68.629181,55.83088 -90.352007,89.11972 l -7.22691,11.07477 -19.174779,-19.08957 c -18.415931,-18.33411 -19.25466,-18.98405 -21.1932375,-16.42292 -3.95172,5.22077 -16.979398,29.27229 -22.6779845,41.86777 l -5.790616,12.7989 z"
         id="path54" />
      <path
         style="color:#000000;font-style:normal;font-variant:normal;font-weight:normal;font-stretch:normal;font-size:medium;line-height:normal;font-family:sans-serif;font-variant-ligatures:normal;font-variant-position:normal;font-variant-caps:normal;font-variant-numeric:normal;font-variant-alternates:normal;font-variant-east-asian:normal;font-feature-settings:normal;font-variation-settings:normal;text-indent:0;text-align:start;text-decoration:none;text-decoration-line:none;text-decoration-style:solid;text-decoration-color:#000000;letter-spacing:normal;word-spacing:normal;text-transform:none;writing-mode:lr-tb;direction:ltr;text-orientation:mixed;dominant-baseline:auto;baseline-shift:baseline;text-anchor:start;white-space:normal;shape-padding:0;shape-margin:0;inline-size:0;clip-rule:nonzero;display:inline;overflow:visible;visibility:visible;isolation:auto;mix-blend-mode:normal;color-interpolation:sRGB;color-interpolation-filters:linearRGB;solid-color:#000000;solid-opacity:1;vector-effect:none;fill:#0076be;fill-opacity:1;fill-rule:nonzero;stroke:none;stroke-width:1.33333;stroke-linecap:butt;stroke-linejoin:miter;stroke-miterlimit:4;stroke-dasharray:none;stroke-dashoffset:0;stroke-opacity:1;color-rendering:auto;image-rendering:auto;shape-rendering:auto;text-rendering:auto;enable-background:accumulate;stop-color:#000000;stop-opacity:1"
         d="m 495.87536,-730.1095 c -20.89767,-38.27183 -50.891,-68.28636 -88.46975,-88.53225 l -10.46641,-5.63888 25.78693,-25.8124 c 14.18282,-14.19682 26.28764,-25.81239 26.89962,-25.81239 0.61197,0 5.39772,2.77197 10.63498,6.15995 33.22431,21.49269 62.26472,50.22729 83.8503,82.96728 5.00189,7.58664 9.09434,14.1924 9.09434,14.67948 0,0.48708 -11.61385,12.488 -25.80854,26.66869 l -25.80855,25.78309 z"
         id="path52" />
      <path
         style="color:#000000;font-style:normal;font-variant:normal;font-weight:normal;font-stretch:normal;font-size:medium;line-height:normal;font-family:sans-serif;font-variant-ligatures:normal;font-variant-position:normal;font-variant-caps:normal;font-variant-numeric:normal;font-variant-alternates:normal;font-variant-east-asian:normal;font-feature-settings:normal;font-variation-settings:normal;text-indent:0;text-align:start;text-decoration:none;text-decoration-line:none;text-decoration-style:solid;text-decoration-color:#000000;letter-spacing:normal;word-spacing:normal;text-transform:none;writing-mode:lr-tb;direction:ltr;text-orientation:mixed;dominant-baseline:auto;baseline-shift:baseline;text-anchor:start;white-space:normal;shape-padding:0;shape-margin:0;inline-size:0;clip-rule:nonzero;display:inline;overflow:visible;visibility:visible;isolation:auto;mix-blend-mode:normal;color-interpolation:sRGB;color-interpolation-filters:linearRGB;solid-color:#000000;solid-opacity:1;vector-effect:none;fill:#0076be;fill-opacity:1;fill-rule:nonzero;stroke:none;stroke-width:1.33333;stroke-linecap:butt;stroke-linejoin:miter;stroke-miterlimit:4;stroke-dasharray:none;stroke-dashoffset:0;stroke-opacity:1;color-rendering:auto;image-rendering:auto;shape-rendering:auto;text-rendering:auto;enable-background:accumulate;stop-color:#000000;stop-opacity:1"
         d="m 86.171645,-746.29863 -26.222432,-26.27346 9.835679,-14.66666 c 23.127643,-34.48724 51.564678,-62.4396 84.242918,-82.80705 l 10.06923,-6.27587 25.88749,25.86197 c 14.23814,14.22408 25.88751,26.21517 25.88751,26.64688 0,0.43169 -3.15,2.23693 -7,4.01163 -10.26812,4.73321 -32.19931,19.6775 -43.66667,29.75524 -18.36473,16.13928 -35.6743,37.94774 -47.11626,59.36213 l -5.69504,10.65865 z"
         id="path50" />
      <path
         style="color:#000000;font-style:normal;font-variant:normal;font-weight:normal;font-stretch:normal;font-size:medium;line-height:normal;font-family:sans-serif;font-variant-ligatures:normal;font-variant-position:normal;font-variant-caps:normal;font-variant-numeric:normal;font-variant-alternates:normal;font-variant-east-asian:normal;font-feature-settings:normal;font-variation-settings:normal;text-indent:0;text-align:start;text-decoration:none;text-decoration-line:none;text-decoration-style:solid;text-decoration-color:#000000;letter-spacing:normal;word-spacing:normal;text-transform:none;writing-mode:lr-tb;direction:ltr;text-orientation:mixed;dominant-baseline:auto;baseline-shift:baseline;text-anchor:start;white-space:normal;shape-padding:0;shape-margin:0;inline-size:0;clip-rule:nonzero;display:inline;overflow:visible;visibility:visible;isolation:auto;mix-blend-mode:normal;color-interpolation:sRGB;color-interpolation-filters:linearRGB;solid-color:#000000;solid-opacity:1;vector-effect:none;fill:#0076be;fill-opacity:1;fill-rule:nonzero;stroke:none;stroke-width:1.33333;stroke-linecap:butt;stroke-linejoin:miter;stroke-miterlimit:4;stroke-dasharray:none;stroke-dashoffset:0;stroke-opacity:1;color-rendering:auto;image-rendering:auto;shape-rendering:auto;text-rendering:auto;enable-background:accumulate;stop-color:#000000;stop-opacity:1"
         d="m 600.67115,-570.37747 c 7.47889,-37.15814 7.85016,-76.09599 1.07812,-113.07 -1.09555,-5.98146 -2.51276,-12.69154 -3.14938,-14.91128 l -1.15749,-4.03591 12.72124,-0.42205 c 7.66328,-0.25424 12.91305,0.10813 13.20368,0.91129 0.26536,0.73333 1.75619,8.53333 3.31295,17.33333 2.11685,11.96598 3.00172,23.77922 3.50965,46.85444 0.68873,31.28978 -0.20032,44.81394 -4.56747,69.4789 l -2.18372,12.33333 h -12.8402 -12.8402 z"
         id="path48" />
      <path
         style="color:#000000;font-style:normal;font-variant:normal;font-weight:normal;font-stretch:normal;font-size:medium;line-height:normal;font-family:sans-serif;font-variant-ligatures:normal;font-variant-position:normal;font-variant-caps:normal;font-variant-numeric:normal;font-variant-alternates:normal;font-variant-east-asian:normal;font-feature-settings:normal;font-variation-settings:normal;text-indent:0;text-align:start;text-decoration:none;text-decoration-line:none;text-decoration-style:solid;text-decoration-color:#000000;letter-spacing:normal;word-spacing:normal;text-transform:none;writing-mode:lr-tb;direction:ltr;text-orientation:mixed;dominant-baseline:auto;baseline-shift:baseline;text-anchor:start;white-space:normal;shape-padding:0;shape-margin:0;inline-size:0;clip-rule:nonzero;display:inline;overflow:visible;visibility:visible;isolation:auto;mix-blend-mode:normal;color-interpolation:sRGB;color-interpolation-filters:linearRGB;solid-color:#000000;solid-opacity:1;vector-effect:none;fill:#0076be;fill-opacity:1;fill-rule:nonzero;stroke:none;stroke-width:1.33333;stroke-linecap:butt;stroke-linejoin:miter;stroke-miterlimit:4;stroke-dasharray:none;stroke-dashoffset:0;stroke-opacity:1;color-rendering:auto;image-rendering:auto;shape-rendering:auto;text-rendering:auto;enable-background:accumulate;stop-color:#000000;stop-opacity:1"
         d="m 511.29489,-565.50195 c 6.66702,-19.60186 9.15175,-36.92674 9.14112,-63.7368 -0.0107,-26.27348 -1.48862,-37.4228 -8.0196,-60.4875 -1.84094,-6.50145 -3.16132,-12.00666 -2.93417,-12.23382 0.22716,-0.22715 16.71169,-0.60778 36.63232,-0.84584 l 36.21932,-0.43284 2.77287,13.33333 c 4.97392,23.91709 5.96232,34.26215 5.9237,62 -0.038,27.29797 -1.33726,39.60437 -6.64509,62.94112 l -2.0604,9.05888 h -37.14703 -37.14702 z"
         id="path46" />
      <path
         style="color:#000000;font-style:normal;font-variant:normal;font-weight:normal;font-stretch:normal;font-size:medium;line-height:normal;font-family:sans-serif;font-variant-ligatures:normal;font-variant-position:normal;font-variant-caps:normal;font-variant-numeric:normal;font-variant-alternates:normal;font-variant-east-asian:normal;font-feature-settings:normal;font-variation-settings:normal;text-indent:0;text-align:start;text-decoration:none;text-decoration-line:none;text-decoration-style:solid;text-decoration-color:#000000;letter-spacing:normal;word-spacing:normal;text-transform:none;writing-mode:lr-tb;direction:ltr;text-orientation:mixed;dominant-baseline:auto;baseline-shift:baseline;text-anchor:start;white-space:normal;shape-padding:0;shape-margin:0;inline-size:0;clip-rule:nonzero;display:inline;overflow:visible;visibility:visible;isolation:auto;mix-blend-mode:normal;color-interpolation:sRGB;color-interpolation-filters:linearRGB;solid-color:#000000;solid-opacity:1;vector-effect:none;fill:#0076be;fill-opacity:1;fill-rule:nonzero;stroke:none;stroke-width:1.33333;stroke-linecap:butt;stroke-linejoin:miter;stroke-miterlimit:4;stroke-dasharray:none;stroke-dashoffset:0;stroke-opacity:1;color-rendering:auto;image-rendering:auto;shape-rendering:auto;text-rendering:auto;enable-background:accumulate;stop-color:#000000;stop-opacity:1"
         d="m 31.423973,-556.90542 c -1.130363,-1.86697 -6.075033,-27.61291 -7.483483,-38.96503 -3.3488,-26.99136 -1.227682,-68.11505 4.977327,-96.49916 l 2.287561,-10.46418 36.614219,0.18952 c 20.137818,0.10426 36.763553,0.33885 36.946073,0.52137 0.18253,0.18252 -1.17442,5.07517 -3.01543,10.87255 -10.983905,34.58856 -11.516825,81.38788 -1.35142,118.67826 1.79917,6.6 3.68086,13.05 4.18154,14.33334 0.85353,2.18778 -1.38086,2.33333 -35.820307,2.33333 -20.201847,0 -37.003083,-0.45 -37.33608,-1 z"
         id="path44" />
      <path
         style="color:#000000;font-style:normal;font-variant:normal;font-weight:normal;font-stretch:normal;font-size:medium;line-height:normal;font-family:sans-serif;font-variant-ligatures:normal;font-variant-position:normal;font-variant-caps:normal;font-variant-numeric:normal;font-variant-alternates:normal;font-variant-east-asian:normal;font-feature-settings:normal;font-variation-settings:normal;text-indent:0;text-align:start;text-decoration:none;text-decoration-line:none;text-decoration-style:solid;text-decoration-color:#000000;letter-spacing:normal;word-spacing:normal;text-transform:none;writing-mode:lr-tb;direction:ltr;text-orientation:mixed;dominant-baseline:auto;baseline-shift:baseline;text-anchor:start;white-space:normal;shape-padding:0;shape-margin:0;inline-size:0;clip-rule:nonzero;display:inline;overflow:visible;visibility:visible;isolation:auto;mix-blend-mode:normal;color-interpolation:sRGB;color-interpolation-filters:linearRGB;solid-color:#000000;solid-opacity:1;vector-effect:none;fill:#0076be;fill-opacity:1;fill-rule:nonzero;stroke:none;stroke-width:1.33333;stroke-linecap:butt;stroke-linejoin:miter;stroke-miterlimit:4;stroke-dasharray:none;stroke-dashoffset:0;stroke-opacity:1;color-rendering:auto;image-rendering:auto;shape-rendering:auto;text-rendering:auto;enable-background:accumulate;stop-color:#000000;stop-opacity:1"
         d="m -10.755478,-562.90542 c -4.747598,-21.93377 -5.880591,-34.45703 -5.940941,-65.66667 -0.06016,-31.10852 1.282466,-46.40284 6.027943,-68.66666 l 1.2788845,-6 12.69118,0.42624 c 11.1582005,0.37476 12.6087125,0.69686 12.0084515,2.66666 -0.375502,1.23224 -1.902938,9.14043 -3.394303,17.57376 -3.9242015,22.19047 -5.4806885,49.95178 -4.0181165,71.66667 1.082619,16.07371 4.9640675,43.1978 7.4411815,52 0.833107,2.96037 0.676326,3 -11.8674305,3 h -12.711689 z"
         id="path42" />
      <path
         style="color:#000000;font-style:normal;font-variant:normal;font-weight:normal;font-stretch:normal;font-size:medium;line-height:normal;font-family:sans-serif;font-variant-ligatures:normal;font-variant-position:normal;font-variant-caps:normal;font-variant-numeric:normal;font-variant-alternates:normal;font-variant-east-asian:normal;font-feature-settings:normal;font-variation-settings:normal;text-indent:0;text-align:start;text-decoration:none;text-decoration-line:none;text-decoration-style:solid;text-decoration-color:#000000;letter-spacing:normal;word-spacing:normal;text-transform:none;writing-mode:lr-tb;direction:ltr;text-orientation:mixed;dominant-baseline:auto;baseline-shift:baseline;text-anchor:start;white-space:normal;shape-padding:0;shape-margin:0;inline-size:0;clip-rule:nonzero;display:inline;overflow:visible;visibility:visible;isolation:auto;mix-blend-mode:normal;color-interpolation:sRGB;color-interpolation-filters:linearRGB;solid-color:#000000;solid-opacity:1;vector-effect:none;fill:#0076be;fill-opacity:1;fill-rule:nonzero;stroke:none;stroke-width:1.33333;stroke-linecap:butt;stroke-linejoin:miter;stroke-miterlimit:4;stroke-dasharray:none;stroke-dashoffset:0;stroke-opacity:1;color-rendering:auto;image-rendering:auto;shape-rendering:auto;text-rendering:auto;enable-background:accumulate;stop-color:#000000;stop-opacity:1"
         d="m 423.19283,-408.85355 c -14.65976,-14.25046 -26.05412,-26.17488 -25.32079,-26.49871 0.73333,-0.32384 5.97719,-3.13079 11.653,-6.23765 34.83347,-19.06736 64.51489,-48.55258 84.6622,-84.1025 l 7.43571,-13.12033 26.0026,26.0026 26.0026,26.0026 -6.17799,9.91216 c -22.20937,35.63349 -53.28151,66.14677 -92.25733,90.59803 l -5.34587,3.3537 z"
         id="path40" />
      <path
         style="color:#000000;font-style:normal;font-variant:normal;font-weight:normal;font-stretch:normal;font-size:medium;line-height:normal;font-family:sans-serif;font-variant-ligatures:normal;font-variant-position:normal;font-variant-caps:normal;font-variant-numeric:normal;font-variant-alternates:normal;font-variant-east-asian:normal;font-feature-settings:normal;font-variation-settings:normal;text-indent:0;text-align:start;text-decoration:none;text-decoration-line:none;text-decoration-style:solid;text-decoration-color:#000000;letter-spacing:normal;word-spacing:normal;text-transform:none;writing-mode:lr-tb;direction:ltr;text-orientation:mixed;dominant-baseline:auto;baseline-shift:baseline;text-anchor:start;white-space:normal;shape-padding:0;shape-margin:0;inline-size:0;clip-rule:nonzero;display:inline;overflow:visible;visibility:visible;isolation:auto;mix-blend-mode:normal;color-interpolation:sRGB;color-interpolation-filters:linearRGB;solid-color:#000000;solid-opacity:1;vector-effect:none;fill:#0076be;fill-opacity:1;fill-rule:nonzero;stroke:none;stroke-width:1.33333;stroke-linecap:butt;stroke-linejoin:miter;stroke-miterlimit:4;stroke-dasharray:none;stroke-dashoffset:0;stroke-opacity:1;color-rendering:auto;image-rendering:auto;shape-rendering:auto;text-rendering:auto;enable-background:accumulate;stop-color:#000000;stop-opacity:1"
         d="m 154.8444,-388.47342 c -33.29599,-20.52835 -68.766265,-56.26431 -90.066956,-90.74157 l -4.927871,-7.97626 25.665082,-25.69041 c 14.11579,-14.12973 25.970845,-25.689 26.344565,-25.68725 0.37372,10e-4 2.46737,3.45173 4.65257,7.66666 18.888,36.43223 53.6644,71.39248 90.18969,90.66651 l 10.16277,5.3628 -26.19372,26.16915 -26.1937,26.16916 z"
         id="path38" />
      <path
         style="color:#000000;font-style:normal;font-variant:normal;font-weight:normal;font-stretch:normal;font-size:medium;line-height:normal;font-family:sans-serif;font-variant-ligatures:normal;font-variant-position:normal;font-variant-caps:normal;font-variant-numeric:normal;font-variant-alternates:normal;font-variant-east-asian:normal;font-feature-settings:normal;font-variation-settings:normal;text-indent:0;text-align:start;text-decoration:none;text-decoration-line:none;text-decoration-style:solid;text-decoration-color:#000000;letter-spacing:normal;word-spacing:normal;text-transform:none;writing-mode:lr-tb;direction:ltr;text-orientation:mixed;dominant-baseline:auto;baseline-shift:baseline;text-anchor:start;white-space:normal;shape-padding:0;shape-margin:0;inline-size:0;clip-rule:nonzero;display:inline;overflow:visible;visibility:visible;isolation:auto;mix-blend-mode:normal;color-interpolation:sRGB;color-interpolation-filters:linearRGB;solid-color:#000000;solid-opacity:1;vector-effect:none;fill:#0076be;fill-opacity:1;fill-rule:nonzero;stroke:none;stroke-width:1.33333;stroke-linecap:butt;stroke-linejoin:miter;stroke-miterlimit:4;stroke-dasharray:none;stroke-dashoffset:0;stroke-opacity:1;color-rendering:auto;image-rendering:auto;shape-rendering:auto;text-rendering:auto;enable-background:accumulate;stop-color:#000000;stop-opacity:1"
         d="m 287.05827,-345.33095 c -14.44574,-1.06728 -31.03428,-3.58683 -45.8529,-6.96434 l -7.33333,-1.67144 -0.35443,-36.96934 c -0.19493,-20.33314 -0.19493,-36.9616 0,-36.95215 0.19494,0.009 4.25443,1.24997 9.0211,2.75668 19.37013,6.12279 32.09242,8.08187 57.33333,8.8286 19.57136,0.57901 27.68807,0.25581 39.29343,-1.56461 12.59946,-1.97638 30.51296,-6.37492 38.3946,-9.42756 2.22124,-0.86032 2.33458,1.19161 2,36.20713 l -0.3547,37.11912 -10,2.34601 c -24.51342,5.75087 -56.40653,8.19366 -82.1471,6.2919 z"
         id="path36" />
      <path
         style="color:#000000;font-style:normal;font-variant:normal;font-weight:normal;font-stretch:normal;font-size:medium;line-height:normal;font-family:sans-serif;font-variant-ligatures:normal;font-variant-position:normal;font-variant-caps:normal;font-variant-numeric:normal;font-variant-alternates:normal;font-variant-east-asian:normal;font-feature-settings:normal;font-variation-settings:normal;text-indent:0;text-align:start;text-decoration:none;text-decoration-line:none;text-decoration-style:solid;text-decoration-color:#000000;letter-spacing:normal;word-spacing:normal;text-transform:none;writing-mode:lr-tb;direction:ltr;text-orientation:mixed;dominant-baseline:auto;baseline-shift:baseline;text-anchor:start;white-space:normal;shape-padding:0;shape-margin:0;inline-size:0;clip-rule:nonzero;display:inline;overflow:visible;visibility:visible;isolation:auto;mix-blend-mode:normal;color-interpolation:sRGB;color-interpolation-filters:linearRGB;solid-color:#000000;solid-opacity:1;vector-effect:none;fill:#0076be;fill-opacity:1;fill-rule:nonzero;stroke:none;stroke-width:1.33333;stroke-linecap:butt;stroke-linejoin:miter;stroke-miterlimit:4;stroke-dasharray:none;stroke-dashoffset:0;stroke-opacity:1;color-rendering:auto;image-rendering:auto;shape-rendering:auto;text-rendering:auto;enable-background:accumulate;stop-color:#000000;stop-opacity:1"
         d="m 280.53871,-306.16446 c -9.68638,-0.86711 -33.2131,-4.23859 -40.33334,-5.77995 l -7,-1.51532 v -12.71169 c 0,-12.54375 0.0396,-12.70053 3,-11.86743 7.94343,2.23544 34.60402,6.1996 50.54811,7.51599 27.51293,2.27155 69.16305,-1.18911 90.78523,-7.54323 2.1066,-0.61906 2.33333,0.54515 2.33333,11.98096 0,14.49323 1.54073,12.94439 -16,16.08432 -23.30732,4.1722 -60.47005,5.88303 -83.33333,3.83635 z"
         id="path34" />
      <path
         style="color:#000000;font-style:normal;font-variant:normal;font-weight:normal;font-stretch:normal;font-size:medium;line-height:normal;font-family:sans-serif;font-variant-ligatures:normal;font-variant-position:normal;font-variant-caps:normal;font-variant-numeric:normal;font-variant-alternates:normal;font-variant-east-asian:normal;font-feature-settings:normal;font-variation-settings:normal;text-indent:0;text-align:start;text-decoration:none;text-decoration-line:none;text-decoration-style:solid;text-decoration-color:#000000;letter-spacing:normal;word-spacing:normal;text-transform:none;writing-mode:lr-tb;direction:ltr;text-orientation:mixed;dominant-baseline:auto;baseline-shift:baseline;text-anchor:start;white-space:normal;shape-padding:0;shape-margin:0;inline-size:0;clip-rule:nonzero;display:inline;overflow:visible;visibility:visible;isolation:auto;mix-blend-mode:normal;color-interpolation:sRGB;color-interpolation-filters:linearRGB;solid-color:#000000;solid-opacity:1;vector-effect:none;fill:#0076be;fill-opacity:1;fill-rule:nonzero;stroke:none;stroke-width:1.33333;stroke-linecap:butt;stroke-linejoin:miter;stroke-miterlimit:4;stroke-dasharray:none;stroke-dashoffset:0;stroke-opacity:1;color-rendering:auto;image-rendering:auto;shape-rendering:auto;text-rendering:auto;enable-background:accumulate;stop-color:#000000;stop-opacity:1"
         d="m 455.87367,-309.68078 c 17.54178,-8.13341 40.2692,-21.03713 41.02,-23.28952 0.27916,-0.83749 -7.73158,-9.94543 -17.80163,-20.23987 -10.07007,-10.29444 -18.06413,-18.922 -17.7646,-19.17236 0.29953,-0.25036 5.3446,-3.63997 11.21127,-7.53246 32.42772,-21.51559 66.01473,-55.28792 85.3683,-85.83936 l 6.4955,-10.25372 18.92121,18.88745 c 10.40668,10.38811 19.51251,18.52203 20.23519,18.07539 2.23653,-1.38226 12.0933,-18.80671 21.07064,-37.24791 l 8.57381,-17.61228 10e-4,95.66667 0.001,95.66666 h -96.3317 -96.33171 z"
         id="path32" />
      <path
         style="color:#000000;font-style:normal;font-variant:normal;font-weight:normal;font-stretch:normal;font-size:medium;line-height:normal;font-family:sans-serif;font-variant-ligatures:normal;font-variant-position:normal;font-variant-caps:normal;font-variant-numeric:normal;font-variant-alternates:normal;font-variant-east-asian:normal;font-feature-settings:normal;font-variation-settings:normal;text-indent:0;text-align:start;text-decoration:none;text-decoration-line:none;text-decoration-style:solid;text-decoration-color:#000000;letter-spacing:normal;word-spacing:normal;text-transform:none;writing-mode:lr-tb;direction:ltr;text-orientation:mixed;dominant-baseline:auto;baseline-shift:baseline;text-anchor:start;white-space:normal;shape-padding:0;shape-margin:0;inline-size:0;clip-rule:nonzero;display:inline;overflow:visible;visibility:visible;isolation:auto;mix-blend-mode:normal;color-interpolation:sRGB;color-interpolation-filters:linearRGB;solid-color:#000000;solid-opacity:1;vector-effect:none;fill:#0076be;fill-opacity:1;fill-rule:nonzero;stroke:none;stroke-width:1.33333;stroke-linecap:butt;stroke-linejoin:miter;stroke-miterlimit:4;stroke-dasharray:none;stroke-dashoffset:0;stroke-opacity:1;color-rendering:auto;image-rendering:auto;shape-rendering:auto;text-rendering:auto;enable-background:accumulate;stop-color:#000000;stop-opacity:1"
         d="m -20.126949,-398.90542 0.001,-96.33333 8.567418,17.59916 c 7.3265435,15.05014 15.6519685,30.23905 20.6830685,37.73417 1.0883195,1.62133 5.0008565,-1.64832 20.6646925,-17.2692 10.627207,-10.59805 19.513281,-18.99805 19.746833,-18.66667 0.233552,0.3314 3.350958,5.10254 6.927566,10.60254 11.642944,17.90416 22.323329,31.05149 38.006339,46.785 17.038072,17.09293 28.093312,26.20058 46.068732,37.95284 6.6,4.31505 12.27113,8.03542 12.60253,8.26749 0.33139,0.23207 -8.06861,9.11693 -18.66667,19.74415 -15.62088,15.66382 -18.89053,19.57637 -17.2692,20.66469 7.49512,5.03109 22.68403,13.35652 37.73418,20.68307 l 17.59916,8.56741 -96.333329,10e-4 -96.333333,0.001 z"
         id="path30" />
      <path
         style="color:#000000;font-style:normal;font-variant:normal;font-weight:normal;font-stretch:normal;font-size:medium;line-height:normal;font-family:sans-serif;font-variant-ligatures:normal;font-variant-position:normal;font-variant-caps:normal;font-variant-numeric:normal;font-variant-alternates:normal;font-variant-east-asian:normal;font-feature-settings:normal;font-variation-settings:normal;text-indent:0;text-align:start;text-decoration:none;text-decoration-line:none;text-decoration-style:solid;text-decoration-color:#000000;letter-spacing:normal;word-spacing:normal;text-transform:none;writing-mode:lr-tb;direction:ltr;text-orientation:mixed;dominant-baseline:auto;baseline-shift:baseline;text-anchor:start;white-space:normal;shape-padding:0;shape-margin:0;inline-size:0;clip-rule:nonzero;display:inline;overflow:visible;visibility:visible;isolation:auto;mix-blend-mode:normal;color-interpolation:sRGB;color-interpolation-filters:linearRGB;solid-color:#000000;solid-opacity:1;vector-effect:none;fill:#0076be;fill-opacity:1;fill-rule:nonzero;stroke:none;stroke-width:1.33333;stroke-linecap:butt;stroke-linejoin:miter;stroke-miterlimit:4;stroke-dasharray:none;stroke-dashoffset:0;stroke-opacity:1;color-rendering:auto;image-rendering:auto;shape-rendering:auto;text-rendering:auto;enable-background:accumulate;stop-color:#000000;stop-opacity:1"
         d="m -20.794922,-956.57222 0.02148,97 0.02148,96.33399 1.273437,0.27344 5.791016,-12.79883 c 2.836338,-6.26911 7.5150289,-15.42664 11.9726562,-23.65625 4.4576274,-8.22961 8.7395576,-15.58531 10.6308594,-18.08399 0.2312469,-0.30551 0.4283789,-0.53168 0.5898438,-0.6582 0.1614649,-0.12652 0.2600902,-0.16654 0.4296875,-0.16992 0.3391941,-0.007 1.1205161,0.29439 2.4570311,1.33008 2.673031,2.07136 7.50572,6.82592 16.712891,15.99218 l 19.755859,19.66797 7.675781,-11.76172 c 21.65561,-33.18583 58.49437,-69.51717 90.14258,-88.91601 l 7.84375,-4.80859 -19.38867,-19.42383 c -5.16469,-5.17392 -9.85903,-9.9783 -13.25977,-13.54688 -1.70037,-1.78429 -3.07724,-3.25868 -4.02344,-4.3125 -0.47309,-0.52691 -0.83977,-0.95033 -1.07812,-1.24414 -0.055,-0.0678 -0.0766,-0.0994 -0.11719,-0.15234 0.1308,-0.1387 0.33308,-0.32753 0.61914,-0.5586 0.60818,-0.49126 1.52765,-1.14442 2.6875,-1.91015 2.3197,-1.53147 5.60636,-3.52295 9.41992,-5.71875 7.62713,-4.3916 17.36728,-9.6036 25.76758,-13.65235 l 16.34375,-7.8789 -0.28906,-1.26563 -95.666017,-0.041 z m 654.666012,0 -96.33203,0.0312 -95.66797,0.0312 -0.27148,1.27539 11.57227,5.19141 c 11.39322,5.10995 14.08112,6.53307 34.82226,18.44141 l 9.69727,5.56836 -18.8418,18.87304 -20.06055,20.09375 8.27539,4.94922 c 31.66171,18.93771 72.63446,59.85712 92.3125,92.19922 l 5.03125,8.26953 20.08399,-19.99023 18.875,-18.78906 6.48633,11.05859 c 3.62478,6.17943 8.98601,16.40741 13.43164,25.35352 2.22281,4.47305 4.21639,8.62825 5.65234,11.79687 0.71798,1.58431 1.29705,2.92197 1.69141,3.92187 0.19717,0.49996 0.34944,0.91609 0.44726,1.22657 0.0978,0.31047 0.12891,0.55313 0.12891,0.51758 0,0.45362 0.0852,0.87096 0.26758,1.23046 0.18238,0.35951 0.52467,0.75 1.0664,0.75 0.001,0 0.37002,-0.0998 0.45313,-0.17578 0.0831,-0.076 0.11674,-0.13408 0.14062,-0.17773 0.0478,-0.0873 0.0561,-0.13028 0.0664,-0.16797 0.0206,-0.0754 0.0255,-0.12352 0.0332,-0.17969 0.0154,-0.11234 0.0274,-0.24299 0.0391,-0.41406 0.0234,-0.34214 0.0466,-0.83305 0.0684,-1.47461 0.0436,-1.28312 0.0851,-3.16533 0.125,-5.58789 0.0798,-4.84513 0.15052,-11.84752 0.21094,-20.48828 0.12085,-17.28153 0.19531,-41.11604 0.19531,-67.33399 z m -653.332028,1.33399 95,0.0391 92.749998,0.0371 -13.71875,6.61328 c -8.44038,4.06807 -18.19454,9.2904 -25.85156,13.69922 -3.82851,2.20441 -7.13092,4.20411 -9.49023,5.76172 -1.17966,0.77881 -2.1222,1.44413 -2.79102,1.98437 -0.33441,0.27012 -0.59934,0.50558 -0.80469,0.73047 -0.20534,0.2249 -0.42773,0.38489 -0.42773,0.87305 0,0.25427 0.0632,0.30662 0.0996,0.37695 0.0364,0.0703 0.0718,0.12665 0.11328,0.1875 0.083,0.1217 0.18807,0.25692 0.32031,0.41993 0.26448,0.326 0.63992,0.75901 1.1211,1.29492 0.96234,1.0718 2.34514,2.55198 4.05078,4.34179 3.41127,3.57963 8.11046,8.39029 13.28125,13.57032 l 18.19531,18.22656 -6.4043,3.92578 c -31.88689,19.54514 -68.772455,55.93237 -90.562498,89.32422 l -6.779297,10.38867 -18.59375,-18.51172 c -9.20876,-9.16784 -14.00293,-13.90471 -16.837891,-16.10156 -1.41748,-1.09842 -2.360038,-1.62616 -3.2988278,-1.60742 -0.4693949,0.009 -0.8991663,0.19659 -1.2265624,0.45312 -0.3273962,0.25654 -0.5786338,0.56757 -0.8320313,0.90235 -2.0604182,2.72209 -6.269493,10.00369 -10.7382813,18.2539 -4.4687882,8.25022 -9.1533762,17.41582 -12.0156252,23.74219 l -4.515625,9.98242 -0.02148,-93.24219 z m 651.999998,0 v 94.66601 c 0,26.2154 -0.0745,50.04741 -0.19531,67.32422 -0.0604,8.63841 -0.13327,15.6394 -0.21289,20.47657 -0.0317,1.9262 -0.0658,3.22621 -0.0996,4.43164 -0.059,-0.15715 -0.0929,-0.26987 -0.16211,-0.44532 -0.40849,-1.03574 -0.99344,-2.38819 -1.7168,-3.98437 -1.44671,-3.19237 -3.44608,-7.35687 -5.67382,-11.83985 -4.45548,-8.96594 -9.81736,-19.19548 -13.47657,-25.43359 l -7.35742,-12.54297 -20.0918,20.00196 -18.88476,18.79687 -4.15039,-6.82227 c -19.84494,-32.61639 -60.81788,-73.54121 -92.76953,-92.65234 l -6.8086,-4.07226 18.85352,-18.88282 20.07226,-20.10547 -11.20703,-6.43554 c -20.74455,-11.9103 -23.53503,-13.38611 -34.9414,-18.50196 l -8.73242,-3.91796 92.55468,-0.0293 z m -326.66797,1.36914 c -23.74501,0.0149 -41.43343,1.53373 -63.78125,5.47852 l -9.55078,1.68554 v 13.46485 13.73437 l 11.8086,-2.5918 c 21.45916,-4.7109 46.57486,-6.84069 71.5039,-6.05664 21.37605,0.67232 47.72092,3.9791 59.5,7.43164 l 5.1875,1.52149 v -13.92774 -13.59765 l -13.55273,-2.34766 c -21.97035,-3.80852 -34.7498,-4.81143 -61.11524,-4.79492 z m 0.002,1.33398 c 26.33155,-0.0165 38.96113,0.97302 60.88476,4.77344 l 12.44727,2.1582 v 12.47461 12.14844 l -3.47852,-1.02148 c -12.07047,-3.53796 -38.35595,-6.80885 -59.83398,-7.48438 -25.0329,-0.78732 -50.24038,1.34638 -71.83008,6.08594 l -10.19141,2.23633 v -12.07617 -12.34571 l 8.44922,-1.49218 c 22.28704,-3.93406 39.86407,-5.44215 63.55274,-5.45704 z m 1.33203,38.15039 c -28.21082,-0.0191 -41.82323,1.35799 -64.56836,6.53125 l -10.09766,2.29688 v 37.57422 37.93554 l 13.18946,-3.91601 c 41.36117,-12.28084 88.54041,-11.72777 126.92578,1.4707 l 7.88476,2.71094 v -9.98047 c 0,-4.94064 0.39098,-21.59503 0.86914,-36.94922 l 0.88672,-28.4707 -10.40234,-2.4043 c -23.51178,-5.43289 -36.32906,-6.77961 -64.6875,-6.79883 z m 0,1.33399 c 28.3168,0.0192 40.93102,1.34374 64.38672,6.76367 l 9.33593,2.1582 -0.85156,27.37696 c -0.47839,15.36151 -0.87109,31.97968 -0.87109,36.99023 v 8.11133 l -6.11719,-2.10352 c -38.69185,-13.30385 -86.10175,-13.84892 -127.73828,-1.48632 l -11.47852,3.4082 v -36.15039 -36.50977 l 9.06055,-2.0625 c 22.68317,-5.15917 36.10601,-6.51516 64.27344,-6.49609 z m -143.01172,35.88281 -10.51758,6.55664 c -32.76327,20.42045 -61.269683,48.44316 -84.445311,83.00195 l -10.140625,15.1211 26.609375,26.66016 26.859371,26.91015 6.11914,-11.45117 c 11.39892,-21.33383 28.66973,-43.09596 46.9668,-59.17578 11.39625,-10.01525 33.39449,-24.98944 43.50586,-29.65039 1.94027,-0.89439 3.70265,-1.79585 4.99609,-2.53711 0.64673,-0.37063 1.17511,-0.69823 1.56446,-0.98047 0.19467,-0.14112 0.35339,-0.26869 0.49023,-0.40625 0.13685,-0.13756 0.33789,-0.23402 0.33789,-0.69336 0,-0.38827 -0.0944,-0.36232 -0.13672,-0.42969 -0.0423,-0.0674 -0.0848,-0.12413 -0.13672,-0.1914 -0.10387,-0.13454 -0.24201,-0.3 -0.41992,-0.50391 -0.3558,-0.40782 -0.86925,-0.96928 -1.52929,-1.67578 -1.3201,-1.413 -3.22253,-3.3978 -5.57032,-5.81445 -4.69557,-4.83331 -11.16999,-11.38992 -18.29101,-18.50391 z m 285.43164,0.5957 c -0.28274,0 -0.32942,0.0725 -0.4082,0.11524 -0.0788,0.0428 -0.14706,0.0874 -0.22266,0.14062 -0.15119,0.10647 -0.32693,0.24503 -0.54297,0.42383 -0.43208,0.35761 -1.01488,0.87213 -1.74023,1.53125 -1.45071,1.31825 -3.46791,3.21498 -5.90821,5.55664 -4.88058,4.68332 -11.45464,11.13905 -18.54882,18.24024 l -26.41993,26.44531 11.25586,6.06445 c 37.46695,20.18565 67.36183,50.10061 88.20118,88.26563 l 6.13867,11.24218 26.4375,-26.4121 c 7.09955,-7.09256 13.55464,-13.63884 18.23633,-18.47657 2.34084,-2.41886 4.23796,-4.41026 5.55468,-5.83203 0.65836,-0.71088 1.17165,-1.27877 1.52735,-1.69336 0.17784,-0.20729 0.31527,-0.37404 0.41992,-0.51367 0.0523,-0.0698 0.096,-0.13192 0.13867,-0.20312 0.0426,-0.0712 0.12695,-0.0755 0.12695,-0.42188 0,-0.26383 -0.0533,-0.30739 -0.0957,-0.41211 -0.0424,-0.10471 -0.0945,-0.21504 -0.16016,-0.3457 -0.13136,-0.26133 -0.31451,-0.59676 -0.54882,-1.00586 -0.46863,-0.81821 -1.13828,-1.92947 -1.96485,-3.26367 -1.65314,-2.6684 -3.92969,-6.21978 -6.43359,-10.01758 -21.63816,-32.81974 -50.74184,-61.61651 -84.04492,-83.16016 -2.62677,-1.69925 -5.13925,-3.24303 -7.08008,-4.36719 -0.97042,-0.56207 -1.79631,-1.01946 -2.43164,-1.34179 -0.31767,-0.16117 -0.58615,-0.28938 -0.8125,-0.38281 -0.22635,-0.0934 -0.34569,-0.17579 -0.67383,-0.17579 z m -285.625,1.09571 25.51367,25.48828 c 7.11712,7.11009 13.58674,13.66209 18.27539,18.48828 2.34433,2.41309 4.24363,4.39563 5.55274,5.79688 0.65455,0.70062 1.16311,1.25644 1.5,1.64257 0.0767,0.0879 0.10966,0.13174 0.16797,0.20117 -0.0344,0.0265 -0.0418,0.0373 -0.082,0.0664 -0.32158,0.23312 -0.82133,0.54782 -1.44335,0.9043 -1.24406,0.71296 -2.9809,1.60211 -4.89063,2.48242 -10.42486,4.80546 -32.28965,19.71914 -43.82813,29.85937 -18.43238,16.19875 -35.77866,38.05389 -47.26367,59.54883 l -5.27148,9.86524 -25.587892,-25.63672 -25.833984,-25.88672 9.529297,-14.21094 c 23.079658,-34.41568 51.449759,-62.29882 84.042969,-82.61328 z m 285.7207,0.28125 c 0.0454,0.0109 -0.004,10e-4 0.0684,0.0312 0.17297,0.0714 0.41986,0.1882 0.71875,0.33984 0.59778,0.30329 1.41001,0.75028 2.36719,1.30469 1.91435,1.10882 4.41294,2.64526 7.02344,4.33398 33.14553,21.44173 62.12325,50.1132 83.65625,82.77344 2.49799,3.78884 4.76855,7.33342 6.41211,9.98633 0.82177,1.32646 1.48834,2.43212 1.94336,3.22656 0.2275,0.39722 0.40168,0.71862 0.51367,0.94141 0.0173,0.0344 0.023,0.0467 0.0371,0.0762 -0.0745,0.0949 -0.15665,0.19917 -0.28906,0.35352 -0.33489,0.39033 -0.83996,0.95002 -1.49219,1.65429 -1.30446,1.40854 -3.1982,3.39571 -5.53516,5.81055 -4.67391,4.82968 -11.12361,11.3728 -18.21875,18.46094 l -25.17969,25.15429 -5.28515,-9.68164 c -20.956,-38.37864 -51.04773,-68.4927 -88.73828,-88.79883 l -9.67969,-5.21484 25.1543,-25.17773 c 7.08863,-7.09564 13.65876,-13.54704 18.52929,-18.22071 2.43527,-2.33683 4.44658,-4.22988 5.88086,-5.5332 0.71714,-0.65166 1.29093,-1.15716 1.69336,-1.49023 0.18351,-0.15188 0.31901,-0.25715 0.41992,-0.33008 z m -459.6464812,171.27148 -1.3945308,6.54688 c -4.75311,22.29962 -6.103167,37.67851 -6.042969,68.80664 0.06038,31.22543 1.202973,43.84302 5.957031,65.80664 l 1.6289062,7.52539 H 3.4707031 c 6.2725803,0 9.3966419,0.0238 11.1132809,-0.41016 0.42916,-0.10849 0.785747,-0.25023 1.082032,-0.48047 0.296285,-0.23023 0.507566,-0.57092 0.583984,-0.91406 0.152835,-0.68628 -0.05967,-1.29725 -0.269531,-2.04297 -2.429562,-8.63323 -6.3391504,-35.84795 -7.417969,-51.86523 -1.4578807,-21.64524 0.096904,-49.37756 4.009766,-71.50391 0.745108,-4.21342 1.49894,-8.29781 2.113281,-11.47851 0.61434,-3.18071 1.116414,-5.54075 1.261719,-6.01758 0.173365,-0.56891 0.241032,-1.23691 -0.150391,-1.7793 -0.391423,-0.54239 -1.031704,-0.7969 -1.9375,-0.99805 -1.811592,-0.40229 -4.9506206,-0.56243 -10.5351562,-0.75 z m 592.8007812,0.0117 -36.76758,0.43945 c -9.96236,0.11906 -19.06567,0.27434 -25.70898,0.42774 -3.32166,0.0767 -6.02913,0.15303 -7.92383,0.22461 -0.94735,0.0358 -1.69045,0.0702 -2.21289,0.10351 -0.26122,0.0167 -0.46546,0.0333 -0.62305,0.0508 -0.0788,0.009 -0.14341,0.0159 -0.21289,0.0293 -0.0347,0.007 -0.071,0.0148 -0.12305,0.0312 -0.052,0.0165 -0.1134,-0.004 -0.29101,0.17383 -0.30929,0.3093 -0.216,0.43836 -0.2207,0.54687 -0.005,0.10852 0.003,0.20228 0.0137,0.3125 0.0214,0.22046 0.0628,0.491 0.125,0.82618 0.12445,0.67035 0.32824,1.5899 0.5957,2.70507 0.53493,2.23036 1.32747,5.23811 2.25,8.4961 6.52282,23.03588 7.98345,34.05808 7.99414,60.30664 0.0106,26.76875 -2.46075,43.98519 -9.10547,63.52148 l -3.56445,10.47852 h 38.07812 37.67969 l 2.17774,-9.57813 c 5.31385,-23.36323 6.62408,-35.76904 6.66211,-63.08789 0.0386,-27.75391 -0.95937,-38.19934 -5.9375,-62.13672 z m -552.205078,0.4082 -2.404297,10.99219 c -6.226931,28.48439 -8.349551,69.61505 -4.986328,96.72266 0.70838,5.70955 2.296115,14.98507 3.851562,23.08398 0.777724,4.04946 1.548224,7.80303 2.195313,10.66797 0.323544,1.43247 0.614787,2.64181 0.865234,3.5625 0.250448,0.92069 0.400783,1.48244 0.66211,1.91406 0.168594,0.27847 0.304182,0.28548 0.40039,0.32422 0.09621,0.0387 0.179923,0.0606 0.273438,0.082 0.187029,0.0429 0.409599,0.0773 0.6875,0.11133 0.555801,0.068 1.324841,0.1312 2.300781,0.19141 1.951879,0.12041 4.719402,0.22761 8.107422,0.31836 6.776039,0.18148 16.030845,0.29492 26.136719,0.29492 17.220662,0 26.380546,-0.0344 31.189453,-0.34766 2.404451,-0.15662 3.698811,-0.34029 4.541011,-0.77148 0.42111,-0.2156 0.76542,-0.58029 0.85938,-1.00977 0.094,-0.42948 -0.0234,-0.79276 -0.14844,-1.11328 -0.21567,-0.55281 -0.82747,-2.52405 -1.58398,-5.11719 -0.75651,-2.59314 -1.67565,-5.85412 -2.57422,-9.15039 -10.126628,-37.14812 -9.591489,-83.87162 1.3418,-118.30078 0.92257,-2.90522 1.72558,-5.58204 2.27539,-7.56445 0.2749,-0.99121 0.48647,-1.80842 0.62109,-2.40234 0.0673,-0.29697 0.1146,-0.53465 0.14258,-0.73047 0.014,-0.0979 0.0246,-0.18308 0.0254,-0.28321 3.8e-4,-0.0501 -7.7e-4,-0.1031 -0.0156,-0.18359 -0.0148,-0.0805 -0.0234,-0.20703 -0.19726,-0.38086 -7.1e-4,-7.1e-4 -0.0992,-0.0846 -0.13477,-0.10547 -0.0355,-0.0209 -0.0632,-0.0334 -0.0859,-0.043 -0.0456,-0.019 -0.0749,-0.0266 -0.0996,-0.0332 -0.0494,-0.0131 -0.0809,-0.0184 -0.11329,-0.0234 -0.0647,-0.01 -0.12657,-0.0169 -0.20312,-0.0234 -0.15311,-0.0132 -0.35696,-0.0249 -0.61719,-0.0371 -0.52046,-0.0245 -1.26485,-0.0495 -2.2168,-0.0742 -1.903894,-0.0494 -4.630733,-0.0992 -7.980464,-0.14649 -6.69946,-0.0945 -15.892343,-0.17833 -25.96289,-0.23047 z m 579.470698,0.0215 -13.57421,0.44922 1.39257,4.85742 c 0.61075,2.12953 2.04166,8.8795 3.13477,14.84766 6.75632,36.88817 6.38578,75.74435 -1.07617,112.81835 l -3.07422,15.27149 h 13.6543 13.40039 l 2.28125,-12.88477 c 4.37173,-24.69086 5.26527,-38.30275 4.57617,-69.60937 -0.5082,-23.08725 -1.39512,-34.94637 -3.51953,-46.95508 -0.77886,-4.40268 -1.54131,-8.55531 -2.14258,-11.70117 -0.30064,-1.57293 -0.55912,-2.89346 -0.76172,-3.8711 -0.2026,-0.97763 -0.31045,-1.52195 -0.4375,-1.87304 -0.14285,-0.39478 -0.42453,-0.53825 -0.68359,-0.65821 -0.25907,-0.11995 -0.55343,-0.20551 -0.90821,-0.2832 -0.70955,-0.15538 -1.6541,-0.26676 -2.82617,-0.34766 -2.34413,-0.16179 -5.58837,-0.18818 -9.43555,-0.0605 z m -28.34765,0.91601 2.66015,12.79688 c 4.96971,23.89681 5.94876,34.1415 5.91016,61.86328 -0.038,27.2771 -1.3271,39.48465 -6.6289,62.79492 l -1.94141,8.53906 h -36.61524 -36.21679 l 2.96484,-8.71484 c 6.68932,-19.66743 9.18838,-37.09981 9.17774,-63.95117 -0.0107,-26.2984 -1.50579,-37.5764 -8.04493,-60.66992 -0.91841,-3.24347 -1.70762,-6.23896 -2.23632,-8.44336 -0.26436,-1.1022 -0.46332,-2.00779 -0.58008,-2.63672 -0.0315,-0.16976 -0.0416,-0.25888 -0.0605,-0.38477 0.0634,-0.005 0.0922,-0.009 0.16602,-0.0137 0.50035,-0.0319 1.23645,-0.066 2.17773,-0.10156 1.88256,-0.0711 4.58635,-0.148 7.9043,-0.22461 6.63589,-0.15322 15.73509,-0.30678 25.69336,-0.42578 z m -590.6464856,0.0117 12.1328125,0.40821 c 5.5736649,0.18719 8.7378671,0.3758 10.2910151,0.7207 0.776575,0.17245 1.084113,0.39089 1.144532,0.47461 0.06042,0.0837 0.0838,0.19534 -0.04297,0.61133 -0.230198,0.75541 -0.678828,2.96451 -1.294922,6.15429 -0.616094,3.18979 -1.370931,7.27814 -2.117187,11.49805 -3.9355413,22.25459 -5.4946075,50.04163 -4.0273441,71.82617 1.0864194,16.13014 4.9401781,43.16555 7.4648441,52.13672 0.206694,0.73447 0.286195,1.23882 0.251953,1.39258 -0.01712,0.0769 -0.01984,0.0869 -0.101563,0.15039 -0.08172,0.0635 -0.26749,0.15875 -0.589844,0.24023 -1.289413,0.32596 -4.5159327,0.36914 -10.7871089,0.36914 H -8.703125 l -1.400391,-6.47461 c -4.741137,-21.90392 -5.865461,-34.33349 -5.925781,-65.52734 -0.06012,-31.08891 1.275827,-46.29738 6.013672,-68.52539 z m 40.5957036,0.39063 36.074218,0.18554 c 10.06727,0.0521 19.255728,0.13797 25.949219,0.23243 3.346746,0.0472 6.070777,0.0973 7.964845,0.14648 0.94703,0.0246 1.6871,0.0486 2.18945,0.0723 0.0452,0.002 0.0602,0.004 0.10156,0.006 -0.0164,0.0791 -0.0198,0.11716 -0.041,0.21093 -0.12601,0.55595 -0.33383,1.3604 -0.60547,2.33985 -0.54329,1.95888 -1.34133,4.62737 -2.25977,7.51953 -11.034521,34.74796 -11.563554,81.62205 -1.359371,119.05469 0.900601,3.30373 1.820781,6.56917 2.580081,9.17187 0.7593,2.6027 1.33804,4.49798 1.62304,5.22852 0.0883,0.22643 0.0873,0.34651 0.0879,0.34375 6e-4,-0.003 0.0424,0.002 -0.16407,0.10742 -0.41292,0.21141 -1.6691,0.47567 -4.021482,0.6289 -4.704768,0.30647 -13.882778,0.34375 -31.101562,0.34375 -10.095974,0 -19.343273,-0.11195 -26.101563,-0.29296 -3.379145,-0.0905 -6.137231,-0.19776 -8.060547,-0.31641 -0.961658,-0.0593 -1.715035,-0.12367 -2.220703,-0.18555 -0.202763,-0.0248 -0.33186,-0.0468 -0.443359,-0.0684 -0.06382,-0.15425 -0.241747,-0.60443 -0.455078,-1.38867 -0.241825,-0.88899 -0.53058,-2.08668 -0.851563,-3.50781 -0.641965,-2.84226 -1.409751,-6.58559 -2.185547,-10.625 -1.55159,-8.07883 -3.139773,-17.35352 -3.839844,-22.99609 -3.334377,-26.87512 -1.21629,-67.98961 4.966797,-96.27344 z m 578.443362,0.0137 c 3.8161,-0.12661 7.0296,-0.098 9.29883,0.0586 1.13461,0.0783 2.03681,0.1898 2.63281,0.32032 0.298,0.0652 0.51921,0.1388 0.63281,0.1914 0.1136,0.0526 0.0604,0.0963 -0.01,-0.0977 0.006,0.0156 0.18456,0.72138 0.38477,1.6875 0.20021,0.96611 0.45993,2.28282 0.75977,3.85156 0.59967,3.13747 1.36076,7.28627 2.13867,11.68359 2.10929,11.92325 2.99233,23.68876 3.5,46.75196 0.68836,31.27293 -0.19408,44.70859 -4.55664,69.34765 l -2.08789,11.7832 h -12.28125 -12.02539 l 2.75195,-13.67382 c 7.49582,-37.24228 7.86784,-76.26243 1.08008,-113.32227 -1.09799,-5.99477 -2.50157,-12.66466 -3.16407,-14.97461 l -0.92187,-3.21484 z m -108.71094,162.24609 -7.86719,13.88282 c -20.08679,35.44313 -49.68287,64.84269 -84.40234,83.84765 -2.83623,1.55251 -5.5642,3.02896 -7.67383,4.15821 -2.10963,1.12924 -3.67502,1.94113 -3.92773,2.05273 -0.26875,0.11868 -0.43454,0.49714 -0.43164,0.68555 0.003,0.1884 0.0482,0.28621 0.0898,0.38281 0.0832,0.19321 0.19201,0.36154 0.33984,0.57226 0.29568,0.42146 0.7473,0.97633 1.35156,1.67774 1.20854,1.40281 3.02517,3.37329 5.32422,5.7793 4.59811,4.812 11.11656,11.36039 18.45118,18.49023 l 27.02929,26.27344 5.78907,-3.63086 c 39.0522,-24.49918 70.2021,-55.08516 92.46874,-90.81055 l 6.45899,-10.36133 -26.37695,-26.37695 z m -389.61328,0.66797 c -0.21842,-4.3e-4 -0.26873,0.0509 -0.32031,0.0762 -0.0519,0.0254 -0.0856,0.0476 -0.11719,0.0684 -0.0631,0.0415 -0.11745,0.0838 -0.18164,0.13477 -0.12838,0.10198 -0.28777,0.23609 -0.48633,0.41211 -0.39712,0.35203 -0.94773,0.86303 -1.64258,1.51758 -1.3897,1.30909 -3.34924,3.19595 -5.73828,5.52539 -4.77808,4.65886 -11.272427,11.08186 -18.332031,18.14843 l -26.03711,26.06446 5.205079,8.42383 c 21.366361,34.58355 56.873052,70.36024 90.283202,90.95898 l 10.08203,6.21484 26.56641,-26.54101 26.83203,-26.8086 -10.96289,-5.78515 c -36.38548,-19.20026 -71.09389,-54.09272 -89.9082,-90.38281 -1.09843,-2.11871 -2.17277,-4.04483 -3.02735,-5.45313 -0.42729,-0.70415 -0.79727,-1.27721 -1.09961,-1.69336 -0.15117,-0.20808 -0.28358,-0.37584 -0.41601,-0.51562 -0.0662,-0.0699 -0.13084,-0.13219 -0.22071,-0.19727 -0.0895,-0.0648 -0.19938,-0.1665 -0.47656,-0.16797 z m 389.91015,1.51367 25.38282,25.38477 25.62695,25.62695 -5.89648,9.46289 c -22.1521,35.5416 -53.14745,65.98338 -92.04688,90.38672 l -4.90234,3.07422 -26.27735,-25.54492 c -7.32514,-7.12062 -13.83533,-13.65935 -18.41601,-18.45313 -2.29034,-2.39688 -4.09953,-4.35909 -5.2793,-5.72851 -0.57449,-0.66685 -0.98871,-1.18424 -1.23633,-1.53321 0.64065,-0.31301 1.62702,-0.82594 3.4336,-1.79296 2.11458,-1.1319 4.84596,-2.61167 7.68554,-4.16602 34.94748,-19.12976 64.71405,-48.70072 84.92188,-84.35742 z m -389.96679,0.0352 c 0.0352,0.0458 0.0519,0.0603 0.0918,0.11523 0.26362,0.36286 0.62308,0.91604 1.03907,1.60157 0.83197,1.37105 1.8976,3.27877 2.98437,5.375 18.96169,36.57436 53.8056,71.60141 90.4707,90.94922 l 9.36329,4.9414 -25.55469,25.5293 -25.82031,25.79687 -9.18555,-5.66211 C 122.01158,-409.49889 86.578821,-445.1934 65.3438,-479.56436 l -4.650391,-7.5293 25.292969,-25.31641 c 7.056186,-7.06315 13.546534,-13.48395 18.318362,-18.13672 2.38591,-2.32638 4.34331,-4.21238 5.72265,-5.51171 0.68968,-0.64967 1.23541,-1.15331 1.61328,-1.48829 0.0721,-0.0639 0.10466,-0.0894 0.16407,-0.14062 z m -131.332034,42.15625 -1.265625,0.29297 v 96.33203 l -0.002,97 h 97 l 96.333979,-0.002 0.29102,-1.26563 -17.59961,-8.5664 c -15.03016,-7.31682 -30.22265,-15.65019 -37.6543,-20.63868 -0.0829,-0.0556 -0.0669,-0.036 -0.0762,-0.0996 -0.009,-0.0636 0.003,-0.25564 0.13672,-0.57226 0.26718,-0.63324 0.98165,-1.69749 2.24805,-3.21289 2.53279,-3.0308 7.25523,-7.92518 15.0625,-15.75391 5.30243,-5.31703 10.05382,-10.19801 13.44335,-13.7832 1.69477,-1.7926 3.0482,-3.26149 3.96485,-4.30469 0.45832,-0.5216 0.80607,-0.9344 1.04297,-1.24414 0.11845,-0.15487 0.20799,-0.27841 0.2832,-0.41016 0.0376,-0.0659 0.0753,-0.12637 0.10938,-0.25195 0.017,-0.0628 0.0382,-0.14433 0.0215,-0.2832 -0.0167,-0.13887 -0.11381,-0.36165 -0.28906,-0.48438 -0.25819,-0.1808 -1.68217,-1.11452 -3.9668,-2.61328 -2.28462,-1.49875 -5.35209,-3.50833 -8.65234,-5.66601 -17.94817,-11.73445 -28.94302,-20.79057 -45.962891,-37.86524 -15.658754,-15.70917 -26.29529,-28.80474 -37.917968,-46.67773 -1.788533,-2.75035 -3.462752,-5.3199 -4.71875,-7.24219 -1.255999,-1.92229 -2.044595,-3.12543 -2.22461,-3.38086 -0.123076,-0.17463 -0.343938,-0.27053 -0.482422,-0.28711 -0.138484,-0.0166 -0.220432,0.004 -0.283203,0.0215 -0.125541,0.034 -0.186003,0.0718 -0.251953,0.10937 -0.1319,0.0752 -0.255175,0.16279 -0.410156,0.28125 -0.309964,0.23692 -0.724318,0.58659 -1.246094,1.04492 -1.043552,0.91668 -2.511842,2.26812 -4.304688,3.96289 -3.585691,3.38956 -8.466172,8.14287 -13.783203,13.44532 -7.828734,7.80726 -12.723107,12.52775 -15.753906,15.06054 -1.515399,1.2664 -2.579649,1.98086 -3.212891,2.24805 -0.31662,0.13359 -0.5086245,0.146 -0.5722651,0.13672 -0.063641,-0.009 -0.045927,0.007 -0.1015625,-0.0762 -4.9884928,-7.43165 -13.319907,-22.62415 -20.6367184,-37.6543 z m 652.130864,1.33398 -8.57422,17.61329 c -4.48281,9.20856 -9.18587,18.16592 -13.04297,24.98437 -1.92855,3.40923 -3.64549,6.28417 -5.01172,8.38086 -0.68311,1.04834 -1.28091,1.90228 -1.76367,2.52344 -0.40719,0.52392 -0.67966,0.77162 -0.84571,0.91211 -0.0448,-0.023 -0.0592,-0.0243 -0.11718,-0.0586 -0.29448,-0.17396 -0.73793,-0.48425 -1.28516,-0.90625 -1.09446,-0.84398 -2.61836,-2.13758 -4.44531,-3.76953 -3.6539,-3.2639 -8.52655,-7.88738 -13.72266,-13.07422 l -19.50976,-19.47656 -6.94141,10.95703 c -19.28583,30.44451 -52.8372,64.18548 -85.17383,85.64063 -2.93426,1.94686 -5.66369,3.76847 -7.69726,5.13476 -1.01679,0.68315 -1.85779,1.25263 -2.4668,1.66797 -0.30451,0.20767 -0.55092,0.37532 -0.73242,0.50195 -0.1815,0.12664 -0.2663,0.18226 -0.37305,0.27149 -0.16501,0.13792 -0.23564,0.34711 -0.24609,0.47461 -0.0105,0.12749 0.0109,0.20443 0.0273,0.26367 0.0328,0.11849 0.0672,0.17946 0.10352,0.24414 0.0725,0.12937 0.15972,0.25044 0.27343,0.40234 0.22744,0.30382 0.55872,0.70654 0.9961,1.21485 0.87476,1.01662 2.16432,2.4447 3.77734,4.18554 3.22605,3.4817 7.74473,8.21451 12.7832,13.36524 5.0281,5.14013 9.54273,9.98517 12.75782,13.64062 1.60754,1.82773 2.89144,3.35958 3.74414,4.47071 0.42635,0.55556 0.74638,1.00863 0.93554,1.32031 0.0661,0.10892 0.0931,0.16879 0.125,0.23438 -0.0323,0.047 -0.039,0.0676 -0.15625,0.18945 -0.1809,0.18793 -0.45492,0.43201 -0.80468,0.71289 -0.69953,0.56176 -1.70437,1.27378 -2.94922,2.09375 -2.4897,1.63994 -5.94018,3.71338 -9.91602,5.9707 -7.95168,4.51465 -18.0093,9.76985 -26.75781,13.82617 l -15.33203,7.10743 0.2793,1.27148 h 96.33203 96.99804 v -96.33203 l -0.002,-95.66797 z m -652.062504,1.84961 7.300781,15 c 7.3362751,15.07013 15.6548083,30.25586 20.7285155,37.81446 0.2164438,0.32245 0.5958008,0.59112 1.015625,0.65234 0.4198245,0.0612 0.8352315,-0.0395 1.2832035,-0.22852 0.895944,-0.37802 1.992073,-1.15216 3.548828,-2.45312 3.113508,-2.60192 8.006695,-7.32701 15.841797,-15.14062 5.310176,-5.29561 10.185277,-10.04086 13.757812,-13.41797 1.786268,-1.68856 3.249158,-3.03728 4.269531,-3.9336 0.455222,-0.39987 0.786309,-0.6741 1.046875,-0.8789 0.255874,0.38517 0.794733,1.19986 1.853516,2.82031 1.255244,1.92113 2.928722,4.48863 4.716797,7.23828 11.663209,17.93532 22.386485,31.13473 38.09375,46.89258 17.056273,17.11119 28.173113,26.26898 46.175783,38.03906 3.29975,2.15736 6.3666,4.16585 8.65039,5.66406 1.97899,1.29826 3.01122,1.9808 3.41016,2.2461 -0.20483,0.26045 -0.48089,0.59364 -0.88086,1.04882 -0.89634,1.02008 -2.24308,2.48155 -3.93164,4.26758 -3.37714,3.57207 -8.12431,8.44567 -13.41993,13.75586 -7.81361,7.8351 -12.53675,12.72829 -15.13867,15.8418 -1.30096,1.55675 -2.07705,2.65484 -2.45508,3.55078 -0.18901,0.44797 -0.28778,0.86143 -0.22656,1.28125 0.0612,0.41982 0.3299,0.79918 0.65234,1.01563 7.5586,5.07369 22.74432,13.39223 37.81446,20.72851 l 14.99804,7.30274 H 76.205078 l -95.666016,0.002 v -95.66797 z m 651.996094,1.33399 v 92.77539 l 0.002,95 h -95.66601 -93.3086 l 12.58985,-5.83789 c 8.79327,-4.07708 18.87029,-9.34134 26.85547,-13.875 3.99258,-2.26683 7.46115,-4.35042 9.99218,-6.01758 1.26552,-0.83358 2.29517,-1.56117 3.05078,-2.16797 0.37781,-0.3034 0.68662,-0.57561 0.92969,-0.82812 0.24307,-0.25252 0.43137,-0.46013 0.54297,-0.79493 0.12172,-0.36517 0.0141,-0.53584 -0.0547,-0.70898 -0.0688,-0.17314 -0.16188,-0.34169 -0.27929,-0.53516 -0.23483,-0.38692 -0.57288,-0.86252 -1.01563,-1.43945 -0.88549,-1.15385 -2.18178,-2.70026 -3.80078,-4.54102 -3.238,-3.6815 -7.76468,-8.53709 -12.80664,-13.6914 -5.0316,-5.14371 -9.5442,-9.87156 -12.75781,-13.33984 -1.60681,-1.73415 -2.88957,-3.15528 -3.74414,-4.14844 -0.38569,-0.44823 -0.65392,-0.77837 -0.84961,-1.03321 0.15601,-0.10793 0.31307,-0.21502 0.53906,-0.36914 0.60451,-0.41226 1.44568,-0.98195 2.46094,-1.66406 2.0305,-1.36423 4.75899,-3.18327 7.6914,-5.12891 32.51882,-21.57602 66.14119,-55.38069 85.5625,-86.03906 l 6.05078,-9.55078 18.33204,18.30078 c 5.21057,5.20128 10.09403,9.83658 13.77539,13.125 1.84067,1.64421 3.37818,2.9519 4.51953,3.83203 0.57067,0.44007 1.03939,0.7721 1.42187,0.99805 0.19124,0.11298 0.35681,0.2008 0.53907,0.26367 0.18225,0.0629 0.43002,0.18032 0.80078,-0.0488 0.45284,-0.27987 0.83408,-0.73008 1.35351,-1.39843 0.51944,-0.66835 1.13239,-1.54556 1.82813,-2.61328 1.39148,-2.13545 3.11731,-5.02831 5.05468,-8.45313 3.87475,-6.84964 8.58751,-15.82595 13.08204,-25.05859 z m -398.98828,62.45898 c -0.004,9e-4 -0.38402,0.1011 -0.38477,0.10157 -7.5e-4,4.7e-4 -0.14457,0.11641 -0.17968,0.1621 -0.0702,0.0914 -0.0849,0.14212 -0.0996,0.18164 -0.0294,0.0791 -0.0345,0.11426 -0.041,0.1504 -0.013,0.0723 -0.0192,0.13154 -0.0254,0.20507 -0.0124,0.14708 -0.0219,0.33978 -0.0312,0.5918 -0.0187,0.50404 -0.0327,1.2354 -0.0449,2.17578 -0.0244,1.88076 -0.0371,4.59491 -0.0371,7.94531 0,6.70081 0.049,15.94302 0.14648,26.11133 l 0.35938,37.4961 7.8457,1.78906 c 14.85368,3.3855 31.4679,5.90832 45.95313,6.97851 25.82275,1.90784 57.74992,-0.53794 82.34765,-6.30859 l 10.50977,-2.46484 0.35937,-37.64258 c 0.1673,-17.5086 0.2241,-26.76476 -0.043,-31.59961 -0.13353,-2.41743 -0.30216,-3.70559 -0.73437,-4.54688 -0.21611,-0.42064 -0.59352,-0.76335 -1.02344,-0.84765 -0.42992,-0.0843 -0.78726,0.0361 -1.10742,0.16015 -7.76552,3.00767 -25.71043,7.42272 -38.25586,9.39063 -11.57028,1.81492 -19.61134,2.13527 -39.16992,1.55664 -25.21308,-0.74591 -37.82324,-2.689 -57.15235,-8.79883 -2.38504,-0.75389 -4.59436,-1.44079 -6.23242,-1.9414 -0.81903,-0.25031 -1.49533,-0.45321 -1.98242,-0.59571 -0.24354,-0.0713 -0.43938,-0.12817 -0.58594,-0.16797 -0.0733,-0.0199 -0.13264,-0.0362 -0.18554,-0.0488 -0.0524,-0.0125 -0.0459,-0.0257 -0.20313,-0.0332 z m 0.56836,1.51953 c 0.0146,0.004 0.0202,0.005 0.0352,0.01 0.47785,0.1398 1.15076,0.3424 1.9668,0.5918 1.63209,0.49879 3.83712,1.18468 6.21875,1.9375 19.41115,6.13575 32.24493,8.11182 57.51367,8.85937 19.58414,0.57939 27.77753,0.25366 39.41797,-1.57226 12.65349,-1.98486 30.53349,-6.36723 38.53125,-9.46485 0.23515,-0.0911 0.36901,-0.0938 0.36914,-0.0937 1.3e-4,3e-5 -0.008,-0.0494 0.0937,0.14844 0.20331,0.39572 0.45921,1.64676 0.58985,4.01172 0.26126,4.72991 0.20634,14.00675 0.0391,31.51367 l -0.34961,36.5957 -9.49024,2.22657 c -24.4291,5.73109 -56.28693,8.17107 -81.94531,6.27539 -14.40625,-1.06437 -30.97035,-3.5797 -45.7539,-6.94922 l -6.82032,-1.55469 -0.34961,-36.44336 c -0.0974,-10.16483 -0.14648,-19.40331 -0.14648,-26.09766 0,-3.34717 0.0128,-6.0579 0.0371,-7.92773 0.0117,-0.90085 0.0259,-1.58407 0.043,-2.06641 z m 0.22656,88.08399 c -0.34314,0.0764 -0.68382,0.2877 -0.91406,0.58398 -0.23024,0.29629 -0.37198,0.65287 -0.48047,1.08203 -0.43395,1.71664 -0.41016,4.84071 -0.41016,11.11328 v 13.25 l 7.52539,1.62891 c 7.22056,1.56308 30.67032,4.92072 40.41407,5.79297 22.96004,2.05534 60.11452,0.34454 83.51171,-3.84375 4.3775,-0.78361 7.56521,-1.27476 9.92774,-1.80664 2.36253,-0.53188 3.94394,-1.09851 5.00391,-2.16406 1.05996,-1.06556 1.44828,-2.53739 1.58203,-4.54102 0.13374,-2.00363 0.0351,-4.61897 0.0351,-8.23047 0,-5.72231 -0.0409,-8.85115 -0.38867,-10.63672 -0.17387,-0.89278 -0.42918,-1.54209 -1.00195,-1.90429 -0.57278,-0.36221 -1.21289,-0.24974 -1.79688,-0.0781 -21.46281,6.30729 -63.14036,9.78002 -90.54297,7.51758 -15.89544,-1.31237 -42.65504,-5.30645 -50.42187,-7.49219 -0.74572,-0.20985 -1.35669,-0.42432 -2.04297,-0.27148 z m 0.28906,1.30273 c 0.15376,-0.0342 0.6581,0.0453 1.39258,0.25196 8.12003,2.28514 34.68109,6.2167 50.67383,7.5371 27.62325,2.28066 69.24579,-1.16545 91.02734,-7.5664 0.46932,-0.13792 0.64677,-0.11356 0.70899,-0.0742 0.0622,0.0393 0.26011,0.28089 0.40625,1.03125 0.29227,1.50072 0.36328,4.66931 0.36328,10.38281 0,3.63512 0.0943,6.26227 -0.0312,8.14258 -0.12552,1.88031 -0.44983,2.93612 -1.19727,3.6875 -0.74744,0.75138 -2.06965,1.29096 -4.35156,1.80469 -2.28191,0.51373 -5.47822,1.00856 -9.87109,1.79492 -23.21745,4.15611 -60.38973,5.86614 -83.15625,3.82813 -9.62901,-0.86198 -33.23204,-4.24794 -40.25196,-5.76758 l -6.47461,-1.40235 v -12.17383 c 0,-6.27117 0.0451,-9.49769 0.3711,-10.7871 0.0815,-0.32236 0.17673,-0.50813 0.24023,-0.58985 0.0635,-0.0817 0.0735,-0.0825 0.15039,-0.0996 z"
         id="path20"
         sodipodi:nodetypes="cccccssscsscccccssscssscccccccccccccccsccccsssscssssssssssscccccsssssssssscccsccscssscccccssscssssccccsccccccccscccccscccccsscccccscccccssccccsscssccsscccscssccccscccccccsssssssssssccsssssscccsccsssssssssssssssscssssccssscccccccscssssssscssscccsccsssssccsscssssssssssscccssssccsccssssccccccsscccssssssssssssssssssssssssscsscssscccccsccccsssssssssscccsccccccssscsssccccsssssssssssccsccccsssccsssssscssssscsssscccssscsssscccccssccccsssssssscccccccsssssssccccccccssssssscccccccsscssccssssccccccccsssssccccccccsccsssssssssssssssscssssssscccccssssccsscccssssssscssssssscssssccccccccccssssssscssssscsssssscccccccccccccsssssssssssscssscccsssssssscccssssscsssccscccssscsssssssscccsssssssssccscccsssccsssccsssssssscssccscssssssssssccsssss" />
    </g>
  </g>
</svg>
