<?xml version="1.0" encoding="UTF-8" standalone="no"?>
<svg
   xmlns:dc="http://purl.org/dc/elements/1.1/"
   xmlns:cc="http://creativecommons.org/ns#"
   xmlns:rdf="http://www.w3.org/1999/02/22-rdf-syntax-ns#"
   xmlns:svg="http://www.w3.org/2000/svg"
   xmlns="http://www.w3.org/2000/svg"
   xmlns:sodipodi="http://sodipodi.sourceforge.net/DTD/sodipodi-0.dtd"
   xmlns:inkscape="http://www.inkscape.org/namespaces/inkscape"
   version="1.1"
   id="svg2"
   xml:space="preserve"
   width="480"
   height="480"
   viewBox="0 0 480 480"
   sodipodi:docname="wisc.svg"
   inkscape:version="1.0.1 (3bc2e813f5, 2020-09-07)"><metadata
     id="metadata8"><rdf:RDF><cc:Work
         rdf:about=""><dc:format>image/svg+xml</dc:format><dc:type
           rdf:resource="http://purl.org/dc/dcmitype/StillImage" /><dc:title></dc:title></cc:Work></rdf:RDF></metadata><defs
     id="defs6"><clipPath
       clipPathUnits="userSpaceOnUse"
       id="clipPath18"><path
         d="m 163.837,325.287 -0.171,-0.685 -0.697,-0.097 c -4.995,-0.696 -11.685,-4.396 -14.285,-9.692 v 0 c -0.084,-0.894 -1.048,-0.921 -1.389,-0.929 v 0 c -14.854,-0.211 -28.572,-6.748 -39.668,-18.906 v 0 C 102.306,289.148 97.65,282.144 93.79,274.16 v 0 c -3.457,-7.149 -6.34,-15.073 -8.569,-23.552 v 0 c -2.176,-8.286 -3.766,-17.233 -4.737,-26.735 v 0 C 72.102,141.585 109.313,39.044 176.111,23.472 v 0 l 0.401,-0.094 0.229,-0.342 c 1.525,-2.285 3.286,-4.117 3.885,-4.278 v 0 c 0.603,0.164 2.366,1.993 3.89,4.278 v 0 l 0.229,0.342 0.402,0.094 c 66.792,15.572 104.003,118.111 95.626,200.401 v 0 c -1.683,16.515 -5.262,31.434 -10.64,44.341 v 0 l -0.862,2.035 c -4.28,9.797 -9.541,18.115 -15.641,24.729 v 0 c -11.094,12.158 -24.812,18.695 -39.682,18.906 v 0 c -0.328,0.008 -1.298,0.037 -1.368,0.949 v 0 c -2.612,5.283 -9.265,9.03 -14.267,9.729 v 0 l -0.702,0.099 -0.166,0.688 c -0.035,0.136 -3.285,13.033 -16.806,13.033 v 0 c -13.482,0 -16.664,-12.538 -16.802,-13.095"
         id="path16" /></clipPath><radialGradient
       fx="0"
       fy="0"
       cx="0"
       cy="0"
       r="1"
       gradientUnits="userSpaceOnUse"
       gradientTransform="matrix(133.79831,0,0,-133.79834,180.62798,178.56975)"
       spreadMethod="pad"
       id="radialGradient34"><stop
         style="stop-opacity:1;stop-color:#ffffff"
         offset="0"
         id="stop24" /><stop
         style="stop-opacity:1;stop-color:#ffffff"
         offset="0.25"
         id="stop26" /><stop
         style="stop-opacity:1;stop-color:#cfb07f"
         offset="0.82865262"
         id="stop28" /><stop
         style="stop-opacity:1;stop-color:#cfb07f"
         offset="0.84"
         id="stop30" /><stop
         style="stop-opacity:1;stop-color:#cfb07f"
         offset="1"
         id="stop32" /></radialGradient><clipPath
       clipPathUnits="userSpaceOnUse"
       id="clipPath44"><path
         d="M 0,360 H 360 V 0 H 0 Z"
         id="path42" /></clipPath></defs><sodipodi:namedview
     pagecolor="#ffffff"
     bordercolor="#666666"
     borderopacity="1"
     objecttolerance="10"
     gridtolerance="10"
     guidetolerance="10"
     inkscape:pageopacity="0"
     inkscape:pageshadow="2"
     inkscape:window-width="3840"
     inkscape:window-height="2066"
     id="namedview4"
     showgrid="false"
     inkscape:zoom="2.1375"
     inkscape:cx="240"
     inkscape:cy="240"
     inkscape:window-x="1609"
     inkscape:window-y="-11"
     inkscape:window-maximized="1"
     inkscape:current-layer="g10"
     inkscape:document-rotation="0" /><g
     id="g10"
     inkscape:groupmode="layer"
     inkscape:label="wisc"
     transform="matrix(1.3333333,0,0,-1.3333333,0,480)"><g
       id="g12"
       transform="matrix(1.1210745,0,0,1.1210745,-21.08853,-20.392169)"><g
         id="g14"
         clip-path="url(#clipPath18)"><g
           id="g20"><g
             id="g22"><path
               d="m 163.837,325.287 -0.171,-0.685 -0.697,-0.097 c -4.995,-0.696 -11.685,-4.396 -14.285,-9.692 v 0 c -0.084,-0.894 -1.048,-0.921 -1.389,-0.929 v 0 c -14.854,-0.211 -28.572,-6.748 -39.668,-18.906 v 0 C 102.306,289.148 97.65,282.144 93.79,274.16 v 0 c -3.457,-7.149 -6.34,-15.073 -8.569,-23.552 v 0 c -2.176,-8.286 -3.766,-17.233 -4.737,-26.735 v 0 C 72.102,141.585 109.313,39.044 176.111,23.472 v 0 l 0.401,-0.094 0.229,-0.342 c 1.525,-2.285 3.286,-4.117 3.885,-4.278 v 0 c 0.603,0.164 2.366,1.993 3.89,4.278 v 0 l 0.229,0.342 0.402,0.094 c 66.792,15.572 104.003,118.111 95.626,200.401 v 0 c -1.683,16.515 -5.262,31.434 -10.64,44.341 v 0 l -0.862,2.035 c -4.28,9.797 -9.541,18.115 -15.641,24.729 v 0 c -11.094,12.158 -24.812,18.695 -39.682,18.906 v 0 c -0.328,0.008 -1.298,0.037 -1.368,0.949 v 0 c -2.612,5.283 -9.265,9.03 -14.267,9.729 v 0 l -0.702,0.099 -0.166,0.688 c -0.035,0.136 -3.285,13.033 -16.806,13.033 v 0 c -13.482,0 -16.664,-12.538 -16.802,-13.095"
               style="fill:url(#radialGradient34);stroke:none"
               id="path36" /></g></g></g></g><g
       id="g38"
       transform="matrix(1.1210745,0,0,1.1210745,-21.08853,-20.392169)"><g
         id="g40"
         clip-path="url(#clipPath44)"><g
           id="g46"
           transform="translate(279.0142,177.8512)"><path
             d="m 0,0 c -1.158,-13.469 -3.358,-26.852 -6.598,-39.977 -3.17,-12.843 -7.338,-25.454 -12.621,-37.585 -5.466,-12.552 -12.275,-24.77 -20.546,-35.697 -1.724,-2.277 -3.51,-4.508 -5.367,-6.678 -2.724,-3.185 -5.613,-6.23 -8.67,-9.098 -3.714,-3.485 -7.719,-6.739 -11.964,-9.652 -6.683,-4.587 -13.977,-8.276 -21.629,-10.798 -1.55,-0.51 -1.595,-0.601 -3.441,-1.016 1.5,3.209 2.612,7.083 2.451,11.431 2.788,0.991 5.504,2.179 8.136,3.529 11.674,5.991 21.787,15.162 29.98,25.333 8.161,10.132 14.77,21.512 20.199,33.251 5.404,11.685 9.682,23.884 12.999,36.319 3.414,12.799 5.814,25.872 7.184,39.047 1.354,13.015 1.723,26.16 0.844,39.22 -0.958,14.235 -3.347,28.447 -8.114,41.929 -3.705,10.479 -8.902,20.75 -16.464,28.993 -7.77,8.471 -18.218,14.333 -29.914,14.353 -7.817,0.014 -13.207,-5.952 -14.815,-13.593 -1.307,-6.147 -0.035,-13.803 3.864,-18.808 1.65,-1.704 1.383,-2.184 0.873,-2.19 -3.324,-0.03 -20.289,2.599 -18.834,19.242 0.94,10.845 6.24,17.98 12.293,22.281 5.491,3.453 11.734,3.858 14.311,3.858 3.162,0 6.325,-0.195 9.435,-0.772 1.258,-0.176 2.643,-0.636 3.804,-0.952 1.277,-0.346 2.54,-0.745 3.785,-1.195 2.45,-0.884 4.83,-1.961 7.118,-3.207 5.488,-2.988 10.315,-6.924 14.613,-11.438 4.61,-4.842 8.41,-10.489 11.602,-16.346 3.123,-5.728 5.646,-11.755 7.747,-17.927 2.292,-6.732 3.985,-13.67 5.262,-20.662 C -1.192,54.164 -0.339,47.06 0.251,39.94 1.35,26.673 1.139,13.255 0,0 m -97.235,-155.184 c -0.045,-0.053 -0.583,-0.707 -1.151,-0.774 -0.568,0.067 -1.106,0.721 -1.151,0.774 -2.887,3.625 -7.192,10.659 -5.57,19.057 0.459,2.364 4.434,3.43 6.721,3.456 2.286,-0.026 6.262,-1.092 6.72,-3.456 1.622,-8.398 -2.683,-15.432 -5.569,-19.057 m -12.142,5.699 c -7.652,2.522 -14.946,6.211 -21.63,10.798 -4.244,2.913 -8.249,6.167 -11.964,9.652 -3.056,2.868 -5.946,5.913 -8.67,9.098 -1.856,2.17 -3.642,4.401 -5.366,6.678 -8.272,10.927 -15.08,23.145 -20.547,35.697 -5.282,12.131 -9.451,24.742 -12.621,37.585 -3.24,13.125 -5.44,26.508 -6.598,39.977 -1.139,13.255 -1.35,26.673 -0.251,39.94 0.59,7.12 1.444,14.224 2.728,21.255 1.278,6.992 2.97,13.93 5.262,20.662 2.101,6.172 4.625,12.199 7.747,17.927 3.193,5.857 6.992,11.504 11.602,16.346 4.299,4.514 9.125,8.45 14.613,11.438 2.288,1.246 4.668,2.323 7.119,3.207 1.245,0.45 2.507,0.849 3.784,1.195 1.162,0.316 2.621,0.794 3.804,0.952 3.11,0.577 6.273,0.772 9.436,0.772 2.577,0 8.82,-0.405 14.311,-3.858 6.052,-4.301 11.352,-11.436 12.292,-22.281 1.456,-16.643 -15.509,-19.272 -18.834,-19.242 -0.509,0.006 -0.776,0.486 0.874,2.19 3.899,5.005 5.171,12.661 3.864,18.808 -1.609,7.641 -6.998,13.607 -14.815,13.593 -11.697,-0.02 -22.144,-5.882 -29.915,-14.353 -7.562,-8.243 -12.759,-18.514 -16.464,-28.993 -4.767,-13.482 -7.155,-27.694 -8.113,-41.929 -0.879,-13.06 -0.511,-26.205 0.843,-39.22 1.371,-13.175 3.77,-26.248 7.184,-39.047 3.318,-12.435 7.596,-24.634 13,-36.319 5.428,-11.739 12.038,-23.119 20.198,-33.251 8.193,-10.171 18.307,-19.342 29.98,-25.333 2.633,-1.35 5.349,-2.538 8.137,-3.529 -0.161,-4.348 0.95,-8.222 2.451,-11.431 -1.847,0.415 -1.892,0.506 -3.441,1.016 m 76,180.979 c -2.293,13.999 -9.229,32.422 -24.238,41.876 17.778,10.433 25.487,21.881 27.249,26.459 9.919,-14.089 16.764,-35.238 18.369,-62.19 -3.63,-1.893 -11.337,-5.265 -21.38,-6.145 M -54.674,-73.184 c 6.183,10.915 11.421,22.39 15.236,34.349 2.797,8.768 4.843,17.823 6.116,26.987 1.346,9.683 1.83,19.487 1.427,29.202 -0.112,2.701 -0.415,7.033 -1.173,12.189 9.696,0.852 17.178,3.909 21.191,5.928 1.927,-39.505 -6.764,-83.326 -23.839,-117.279 -3.189,0.625 -12.647,2.885 -18.958,8.624 m -32.148,-39.103 c 8.57,6.156 19.805,17.812 31.138,37.352 6.36,-5.601 15.242,-7.921 19.025,-8.696 -9.838,-19.017 -22.343,-34.771 -37.122,-44.707 -2.583,1.998 -9.936,8.178 -13.041,16.051 m -21.417,-1.195 c 4.574,-3.333 9.244,-5.229 9.853,-5.422 0.608,0.193 5.279,2.089 9.853,5.422 3.227,-7.66 9.958,-13.591 13.022,-16.006 -4.223,-2.675 -8.617,-4.895 -13.189,-6.567 -0.029,0.163 -0.041,0.324 -0.068,0.487 -0.945,4.863 -7.297,5.858 -9.618,5.865 -2.321,-0.007 -8.673,-1.002 -9.618,-5.865 -0.027,-0.163 -0.039,-0.324 -0.069,-0.487 -4.571,1.672 -8.965,3.892 -13.188,6.567 3.063,2.415 9.794,8.346 13.022,16.006 m -32.849,38.547 c 11.333,-19.54 22.568,-31.196 31.137,-37.352 -3.105,-7.873 -10.457,-14.053 -13.04,-16.051 -14.779,9.936 -27.285,25.69 -37.122,44.707 3.783,0.775 12.665,3.095 19.025,8.696 m -43.687,112.574 c 1.604,26.952 8.45,48.101 18.369,62.19 1.761,-4.578 9.47,-16.026 27.249,-26.459 -15.11,-9.092 -21.945,-27.877 -24.239,-41.876 -10.042,0.88 -17.75,4.252 -21.379,6.145 m 21.07,-8.096 c -0.758,-5.156 -1.061,-9.488 -1.173,-12.189 -0.402,-9.715 0.082,-19.519 1.427,-29.202 1.274,-9.164 3.319,-18.219 6.116,-26.987 3.815,-11.959 9.054,-23.434 15.236,-34.349 -6.31,-5.739 -15.768,-7.999 -18.957,-8.624 -17.075,33.953 -25.767,77.774 -23.839,117.279 4.013,-2.019 11.494,-5.076 21.19,-5.928 m 58.464,112.995 c 2.842,-1.752 5.073,-4.517 5.87,-7.76 0.236,-0.958 0.599,-1.53 0.985,-1.53 0.386,0 0.749,0.572 0.984,1.53 0.798,3.243 3.028,6.008 5.871,7.76 8.599,5.303 18.35,1.793 22.254,-5.839 -1.993,-0.338 -3.755,-0.827 -6.145,-1.544 -3.465,-1.196 -6.327,-2.658 -8.761,-4.871 -5.469,-4.969 -10.311,-12.664 -11.209,-22.469 -2.456,-26.952 28.456,-22.719 30.014,-22.589 3.995,0 7.011,6.291 7.011,14.629 0,8.345 -3.098,14.637 -7.011,14.637 -2.395,0 -6.539,-1.915 -6.925,-9.385 -0.27,-5.247 2.298,-12.224 5.615,-12.66 1.719,-0.226 3.293,2.817 3.784,5.899 0.436,2.683 0.208,6.89 -2.187,7.49 -0.755,0.191 -1.518,-0.273 -1.71,-1.032 -0.173,-0.686 1.484,-1.855 1.423,-4.944 -0.095,-4.613 -4.73,-2.307 -4.11,5.014 0.56,6.497 3.877,6.084 4.015,6.09 1.856,0 4.65,-3.868 4.65,-11.109 0,-6.441 -3.111,-13.374 -9.05,-9.754 -5.002,3.658 -6.977,12.08 -5.594,18.596 0.629,2.992 3.209,11.132 11.533,11.132 12.012,0 23.206,-6.31 32.136,-18.051 -0.979,-3.149 -7.169,-15.119 -26.846,-26.577 -0.422,-0.212 -1.042,-0.572 -1.076,-0.558 -6.005,2.442 -11.638,3.967 -18.187,3.594 -5.796,-0.331 -11.454,-1.393 -17.091,-2.713 -1.111,-0.26 -2.247,-0.554 -3.388,-0.554 v 0 c -1.141,0 -2.278,0.294 -3.388,0.554 -5.638,1.32 -11.295,2.382 -17.092,2.713 -6.548,0.373 -12.182,-1.152 -18.186,-3.594 -0.035,-0.014 -0.655,0.346 -1.077,0.558 -19.676,11.458 -25.867,23.428 -26.845,26.577 8.93,11.741 20.123,18.051 32.136,18.051 8.323,0 10.903,-8.14 11.532,-11.132 1.383,-6.516 -0.591,-14.938 -5.594,-18.596 -5.938,-3.62 -9.049,3.313 -9.049,9.754 0,7.241 2.794,11.109 4.65,11.109 0.138,-0.006 3.455,0.407 4.014,-6.09 0.621,-7.321 -4.014,-9.627 -4.11,-5.014 -0.06,3.089 1.596,4.258 1.424,4.944 -0.193,0.759 -0.956,1.223 -1.711,1.032 -2.395,-0.6 -2.622,-4.807 -2.187,-7.49 0.491,-3.082 2.065,-6.125 3.784,-5.899 3.317,0.436 5.885,7.413 5.615,12.66 -0.385,7.47 -4.529,9.385 -6.925,9.385 -3.913,0 -7.01,-6.292 -7.01,-14.637 0,-8.338 3.015,-14.629 7.01,-14.629 1.559,-0.13 32.47,-4.363 30.014,22.589 -0.897,9.805 -5.74,17.5 -11.208,22.469 -2.435,2.213 -5.296,3.675 -8.762,4.871 -2.39,0.717 -4.151,1.206 -6.145,1.544 3.905,7.632 13.655,11.142 22.255,5.839 m 6.855,15.8 c 11.843,0.001 14.452,-10.063 14.47,-10.167 -5.886,-0.4 -11.375,-3.965 -14.213,-9.104 -0.043,-0.078 -0.148,-0.344 -0.257,-0.344 -0.126,0 -0.214,0.266 -0.258,0.344 -2.838,5.139 -8.326,8.704 -14.213,9.104 0.019,0.104 2.628,10.168 14.471,10.167 M 2.705,46.121 c -0.691,6.804 -1.727,13.577 -3.178,20.262 -1.335,6.151 -3.023,12.23 -5.138,18.161 -2.227,6.246 -4.926,12.382 -8.2,18.153 -3.077,5.423 -6.688,10.518 -10.893,15.125 -11.208,12.279 -25.051,19.048 -40.402,19.266 l -0.335,-0.002 c -2.491,5.459 -9.362,9.897 -15.334,10.728 0,0 -3.208,13.679 -17.611,13.745 -14.404,-0.066 -17.612,-13.745 -17.612,-13.745 -5.971,-0.831 -12.843,-5.269 -15.333,-10.728 l -0.335,0.002 c -15.352,-0.218 -29.195,-6.987 -40.403,-19.266 -4.204,-4.607 -7.816,-9.702 -10.892,-15.125 -3.274,-5.771 -5.973,-11.907 -8.201,-18.153 -2.114,-5.931 -3.802,-12.01 -5.138,-18.161 -1.451,-6.685 -2.486,-13.458 -3.177,-20.262 -8.491,-83.352 28.999,-185.804 96.427,-201.524 1.026,-1.537 3.374,-4.719 4.664,-4.719 1.29,0 3.637,3.182 4.663,4.719 67.429,15.72 104.919,118.172 96.428,201.524"
             style="fill:#231f20;fill-opacity:1;fill-rule:nonzero;stroke:none"
             id="path48" /></g><g
           id="g50"
           transform="translate(243.4511,194.6771)"><path
             d="m 0,0 c -0.417,9.908 -3.311,40.156 -23.894,53.28 -4.45,2.83 -10.292,4.08 -16.164,4.461 -10.106,0.659 -17.596,-3.204 -22.639,-3.346 h -0.252 C -67.993,54.537 -75.542,58.4 -85.648,57.741 -91.514,57.36 -97.302,56.11 -101.752,53.28 -122.332,40.156 -125.229,9.908 -125.646,0 c -1.471,-35.047 9.61,-62.419 13.046,-69.972 14.244,-31.361 31.436,-53.531 48.417,-61.07 l 1.357,-0.608 1.369,0.608 c 16.972,7.539 34.172,29.709 48.409,61.07 C -9.613,-62.419 1.469,-35.047 0,0"
             style="fill:#cf113f;fill-opacity:1;fill-rule:nonzero;stroke:none"
             id="path52" /></g><g
           id="g54"
           transform="translate(211.2063,218.4616)"><path
             d="m 0,0 v -6.848 l 1.384,0.211 c 0.021,0.004 0.282,0.038 0.647,0.038 0.758,0 2.152,-0.132 3.024,-1.022 0.821,-0.835 1.082,-2.244 0.789,-4.094 -0.026,-0.069 -13.774,-59.67 -16.389,-71.029 -3.01,14.362 -19.392,92.783 -19.392,92.783 l -0.068,0.333 h -3.249 l -0.052,-0.352 c 0,0 -11.852,-76.342 -14.222,-91.621 -3.089,13.226 -16.296,69.817 -16.296,69.817 -0.037,0.362 -0.053,0.707 -0.053,1.028 0,1.602 0.378,2.78 1.136,3.503 1.003,0.965 2.524,0.829 2.659,0.815 l 1.36,-0.179 0.011,6.617 h -23.002 v -6.473 l 1.017,-0.16 c 0.504,-0.098 3.069,-0.719 3.491,-3.065 0.005,-0.039 26.91,-115.5 28.054,-120.411 l 0.079,-0.323 h 4.046 l 0.047,0.35 c 0.127,0.799 11.079,72.461 13.125,85.883 2.602,-13.364 16.548,-85.106 16.698,-85.896 l 0.069,-0.337 h 3.61 L 15.23,-9.63 c 0.615,2.508 2.817,2.776 3.739,2.776 0.133,0 0.222,-0.005 0.267,-0.011 l 1.32,-0.106 V 0 Z"
             style="fill:#ffffff;fill-opacity:1;fill-rule:nonzero;stroke:none"
             id="path56" /></g></g></g></g></svg>
