<?xml version="1.0" encoding="UTF-8" standalone="no"?>
<svg
   xmlns:dc="http://purl.org/dc/elements/1.1/"
   xmlns:cc="http://creativecommons.org/ns#"
   xmlns:rdf="http://www.w3.org/1999/02/22-rdf-syntax-ns#"
   xmlns:svg="http://www.w3.org/2000/svg"
   xmlns="http://www.w3.org/2000/svg"
   xmlns:sodipodi="http://sodipodi.sourceforge.net/DTD/sodipodi-0.dtd"
   xmlns:inkscape="http://www.inkscape.org/namespaces/inkscape"
   version="1.1"
   id="svg2"
   width="128"
   height="128"
   viewBox="0 0 128 128"
   sodipodi:docname="lanl.svg"
   inkscape:version="1.0.1 (3bc2e813f5, 2020-09-07)">
  <metadata
     id="metadata8">
    <rdf:RDF>
      <cc:Work
         rdf:about="">
        <dc:format>image/svg+xml</dc:format>
        <dc:type
           rdf:resource="http://purl.org/dc/dcmitype/StillImage" />
        <dc:title></dc:title>
      </cc:Work>
    </rdf:RDF>
  </metadata>
  <defs
     id="defs6" />
  <sodipodi:namedview
     pagecolor="#ffffff"
     bordercolor="#666666"
     borderopacity="1"
     objecttolerance="10"
     gridtolerance="10"
     guidetolerance="10"
     inkscape:pageopacity="0"
     inkscape:pageshadow="2"
     inkscape:window-width="3840"
     inkscape:window-height="2066"
     id="namedview4"
     showgrid="false"
     inkscape:zoom="4.49375"
     inkscape:cx="160"
     inkscape:cy="64"
     inkscape:window-x="1609"
     inkscape:window-y="-11"
     inkscape:window-maximized="1"
     inkscape:current-layer="g10" />
  <g
     inkscape:groupmode="layer"
     inkscape:label="Image"
     id="g10">
    <g
       id="g941"
       transform="matrix(2.1784629,0,0,2.1710391,-9.9753942,186.6668)">
      <path
         style="fill:#000f7e;fill-opacity:1;stroke-width:0.16"
         d="m 44.24178,-75.129347 c -3.523184,-2.828437 -7.930699,-5.475785 -11.44,-6.871369 -2.11692,-0.841861 -5.518736,-1.70933 -7.239595,-1.846109 -0.726223,-0.05772 -1.417223,-0.156101 -1.535555,-0.218616 -0.126204,-0.06667 0.502192,-0.320218 1.52,-0.613285 10.687772,-3.077434 21.684465,-0.225614 29.467404,7.64191 l 1.510965,1.527386 -2.141609,0.09925 c -2.656223,0.123098 -6.197511,0.755461 -8.30161,1.482408 -0.143416,0.04955 -0.883896,-0.434006 -1.84,-1.201573 z"
         id="path110" />
      <path
         style="fill:#000f7e;fill-opacity:1;stroke-width:0.16"
         d="m 18.646663,-58.424558 c -1.061613,-1.675878 -2.581715,-4.927744 -3.245454,-6.942808 -2.284573,-6.9358 -1.106279,-12.474435 3.074598,-14.452306 1.541834,-0.729404 2.699879,-0.948558 4.965973,-0.939782 3.190275,0.01235 6.497064,0.844549 10.685154,2.689054 2.891128,1.273301 8.94602,4.924991 8.640747,5.211212 -0.06925,0.06492 -0.845901,0.422016 -1.725901,0.793537 -6.80496,2.872941 -15.289923,8.415971 -20.711269,13.530195 l -1.097971,1.03577 z"
         id="path108" />
      <path
         style="fill:#000f7e;fill-opacity:1;stroke-width:0.16"
         d="m 8.7669113,-41.132532 c -5.9235673,-9.863055 -5.6627449,-22.157008 0.671025,-31.628967 0.6281377,-0.939361 1.1609227,-1.707931 1.1839647,-1.707931 0.02304,0 -0.02752,0.522 -0.112361,1.16 -0.106718,0.80252 -0.095,1.77149 0.03803,3.144242 0.425966,4.395627 2.129747,9.070099 5.016665,13.763659 l 1.025894,1.667901 -1.0432,1.292099 c -3.584748,4.440041 -5.6920247,9.003019 -5.9801117,12.948997 l -0.045037,0.616896 z"
         id="path80" />
      <path
         style="fill:#000f7e;fill-opacity:1;stroke-width:0.16"
         d="m 17.12178,-36.311971 c -2.832069,-0.694763 -4.03713,-1.983301 -4.034088,-4.313536 8e-4,-0.618158 0.121773,-1.591923 0.268813,-2.163923 0.289901,-1.127739 1.55928,-3.916432 2.366976,-5.2 0.660149,-1.049091 2.606896,-3.696984 2.810606,-3.822885 0.08765,-0.05417 0.459139,0.279815 0.825525,0.742194 3.064947,3.867992 7.793067,8.289841 11.902298,11.131307 l 1.420129,0.981997 -0.460129,0.180041 c -3.084172,1.206788 -6.056274,2.063668 -8.54013,2.462186 -1.852638,0.297243 -5.353323,0.29864 -6.56,0.0026 z"
         id="path78" />
      <path
         style="fill:#000f7e;fill-opacity:1;stroke-width:0.16"
         d="m 49.44178,-35.216262 c -2.800718,-0.442883 -6.003328,-1.428235 -8.680162,-2.670638 -2.532932,-1.175615 -2.507512,-0.991314 -0.323328,-2.344071 2.06385,-1.278229 4.142653,-2.685704 6.36349,-4.308467 1.436958,-1.049984 1.441555,-1.051902 2.175938,-0.908778 0.992368,0.193404 1.735219,0.02866 2.644891,-0.586579 2.270285,-1.535448 1.916051,-5.048579 -0.61569,-6.106147 -0.889133,-0.371413 -2.178355,-0.319915 -3.019974,0.120632 -0.810874,0.424454 -1.677631,1.588186 -1.844199,2.47607 -0.101088,0.538845 0.0601,1.688996 0.319802,2.281938 0.175021,0.3996 -4.238715,3.399472 -8.30948,5.64768 -1.060792,0.585856 -2.008536,1.065192 -2.106096,1.065192 -0.225192,0 -3.658291,-2.498306 -4.920554,-3.580742 -3.10907,-2.666144 -5.925284,-5.554813 -8.514467,-8.733527 l -1.494081,-1.834269 1.161955,-1.183452 c 5.072088,-5.165927 13.561598,-10.819256 21.320414,-14.19768 l 1.918461,-0.835356 0.95869,0.822514 c 2.760577,2.368451 5.503182,5.315027 7.35548,7.902512 0.803803,1.122838 1.012969,1.32 1.400358,1.32 0.328258,0 0.505374,-0.109653 0.634352,-0.39273 0.156803,-0.344145 0.08215,-0.562625 -0.60343,-1.766075 -0.430304,-0.755341 -1.327514,-2.108611 -1.9938,-3.00727 -1.333223,-1.798192 -4.107578,-4.934853 -4.719452,-5.335768 -0.214014,-0.140227 -0.389118,-0.309439 -0.389118,-0.376021 0,-0.187818 3.59525,-1.093968 5.427283,-1.367898 0.904259,-0.135208 2.303043,-0.225222 3.108411,-0.200035 l 1.464306,0.0458 0.598957,0.88 c 0.97939,1.438941 2.472613,4.58632 3.15024,6.64 1.986253,6.019722 2.013285,12.526595 0.0767,18.460571 -1.364275,4.18033 -4.424101,9.177557 -7.099365,11.594496 l -0.647454,0.584933 -2.199539,-0.02179 c -1.209747,-0.01198 -2.379539,-0.05025 -2.599539,-0.08504 z"
         id="path76" />
      <path
         style="fill:#000f7e;fill-opacity:1;stroke-width:0.16"
         d="m 30.72178,-27.127678 c -3.449546,-0.393053 -6.722203,-1.381994 -10,-3.021827 -1.942746,-0.971927 -4.849301,-2.805034 -4.692954,-2.959754 0.02913,-0.02882 0.376954,0.01021 0.772954,0.08675 0.396,0.07653 1.592976,0.142283 2.659947,0.146115 4.103799,0.01474 9.053824,-1.285522 14.496394,-3.807882 l 1.396341,-0.647134 2.164652,1.040928 c 3.930658,1.890158 8.54938,3.184853 12.04758,3.37711 0.904702,0.04972 1.67848,0.144714 1.719504,0.211095 0.119052,0.19263 -2.564362,1.865208 -4.484418,2.795145 -4.93427,2.389805 -10.721101,3.390069 -16.08,2.779458 z"
         id="path14" />
    </g>
  </g>
</svg>
