<svg width="341" height="149" xmlns="http://www.w3.org/2000/svg"><g fill="none"><path fill="#000" d="M.15 93.993V54.457h31.435v3.144H3.617v14.35h26.831v3.146H3.617v15.752h28.288v3.144zm67.704 0l-28.16-34.344v34.344h-3.47V54.458h3.859l28.162 34.349V54.458h3.466v39.535zm10.443 0V54.458h31.433v3.145H81.762v14.351h26.833v3.141H81.762v15.754h28.294v3.144zm67.039.001l-.14-.131c-.978-1.049-1.024-3.387-1.236-9.314-.082-3.311-.664-5.288-2.005-6.443-1.339-1.174-3.664-1.667-7.439-1.66h-16.68v17.548h-3.466V54.46h20.199c3.741 0 7.083.522 9.552 2.145 2.475 1.626 3.963 4.397 3.951 8.553.012 3.742-2.067 7.795-6.582 9.526 3.82 1.131 5.912 4.308 5.935 8.121.1 7.012.349 9.251 1.022 10.462l.391.727h-3.502zM134.138 73.3c1.204.003 3.875-.009 6.188-1.057 2.303-1.064 4.262-3.019 4.28-7.249-.022-5.908-4.401-7.33-9.822-7.39h-16.947V73.3h16.301z"/><path d="M110.331 1.05h35.597v3.141h-15.551v36.39h-3.465V4.191H111.36V1.07L95.206 20.487l16.714 20.094h-4.573L92.891 23.147 78.275 40.581H73.86l16.771-20.094L74.461 1.05h4.624l13.811 16.732L106.972 1.05h3.359zm-68.26 39.531V1.05h31.435v3.141H45.537v14.351H72.37v3.144H45.537V37.44H73.83v3.142H42.071v-.001zm-10.443 0L3.467 6.24v34.341H0V1.05h3.853l28.164 34.343V1.05h3.47v39.531h-3.859z" fill="#7AC143"/><path d="M277.781 54.173s.951 2.61 1.069 6.167l-15.777 18.384 21.822-16.486 1.069 5.099s-16.604 18.859-20.635 24.196c0 0 21.165-17.517 32.993-24.591-5.218-9.641-15.416-16.188-27.149-16.188-17.044 0-30.862 13.818-30.862 30.863 0 .47.05.931.073 1.398 6.854-5.94 25.323-21.615 37.397-28.842m24.25 28.185a30.87 30.87 0 0 0-1.3-8.836c-7.124 3.784-24.046 13.156-36.193 22.947a390.367 390.367 0 0 1 30.502 5.448 30.71 30.71 0 0 0 6.991-19.559" fill="#0096D6"/><path d="M278.375 71.759s-17.437 13.521-19.808 15.776l-2.375-4.39s11.982-14.944 15.895-18.858c0 0-21.333 15.187-31.129 24.361a30.84 30.84 0 0 0 1.673 5.435c5.257.416 10.574.959 15.954 1.613.377-.454 17.675-21.238 19.79-23.937" fill="#0096D6"/><path d="M173.349 94.856c-5.961 0-11.221-1.884-14.99-5.424-3.773-3.538-6.024-8.725-6.022-15.208.003-4.778 1.627-9.921 5.076-13.894 3.443-3.97 8.734-6.739 15.937-6.734 9.599-.024 16.854 4.784 18.782 13.337l.137.6h-3.494l-.087-.382c-1.56-6.854-7.755-10.396-15.338-10.415-10.749.014-17.526 8.004-17.546 17.487.033 9.462 5.978 17.466 17.546 17.491 9.33-.034 15.3-5.537 16.1-14.785h-15.459v-3.144h18.988l-.022.518c-.16 3.222-1.12 7.362-2.049 9.981-3.002 7.116-10.008 10.572-17.533 10.572h-.026m40.035-1.777c-.673-.002-1.346-.013-2.015-.013-.15 0-.305.004-.464.006h-.491l-.005-15.598-18.398-23.016h4.714l15.422 19.728 15.745-19.728h4.391L213.88 77.474v15.609l-.496-.004zm0-.491l.004-.491-.004.491z" fill="#000"/><path d="M293.802 103.328a390.498 390.498 0 0 0-34.126-5.838 380.68 380.68 0 0 0-47.265-2.966h-.013c-99.356.003-171.691 39.27-195.969 54.476 78.858-35.583 152.39-45.919 211.221-45.919 50.381 0 89.975 7.578 112.921 13.384-15.961-5.507-31.562-9.833-46.769-13.137" fill="#7AC143"/><path d="M187.679 21.953c0-11.31-5.907-21.893-21.331-21.893-12.338 0-20.935 8.245-20.935 21.164 0 10.294 5.84 20.435 21.528 20.435 13.261 0 17.983-8.539 19.955-12.845h-9.851c-1.773 3.212-4.397 5.547-10.371 5.547-8.99 0-11.524-7.005-11.813-10.949h32.816v-1.459h.002zm-32.817-4.962c1.511-7.885 7.418-10.071 11.614-10.071 4.464 0 10.633 2.333 11.753 10.071h-23.367zm102.696 16.534c-.756-.188-1.807-.184-1.807-2.279V13.111c0-4.984-.518-12.86-18.517-12.86-10.204 0-16.896 3.104-18.193 13.147h8.769c.322-4.261 3.506-6.356 9.425-6.356 5.192 0 9.744 1.085 9.744 5.49 0 2.962-1.369 3.47-14.234 4.844-5.714.578-15.458 1.518-15.458 12.067 0 7.514 5.061 11.991 14.029 11.991 10.071 0 14.428-3.395 16.187-5.272.254 1.444.904 4.914 6.754 4.914 1.464 0 4.013-.118 5.205-.28l.024-6.955c-1.182-.101-1.394-.181-1.928-.316zM246.783 24.6c0 8.454-8.12 10.476-12.935 10.476-3.047 0-7.208-.938-7.208-5.999 0-3.25 1.623-4.915 8.386-5.776 6.36-.796 9.155-1.156 11.757-2.387V24.6zM217.14.43c-1.205-.223-.527-.373-1.941-.373-7.095 0-10.911 4.245-13.391 8.715h-.13V1.104h-9.246V40.57h9.246V21.506c0-9.158 6.626-11.914 11.311-11.914.7 0 3.314.02 4.115.107L217.14.43z" fill="#0096D6"/><path d="M194.016 121.699h5.454c2.162 0 3.913 1.08 3.913 3.979 0 1.991-.887 3.526-2.574 3.787v.042c1.538.151 2.338.997 2.425 3.16.02.995.045 2.206.086 3.137.046.756.411 1.125.736 1.34h-2.79c-.238-.281-.348-.756-.411-1.362-.087-.931-.063-1.798-.109-2.92-.043-1.687-.564-2.424-2.249-2.424h-2.013v6.706h-2.468v-15.445zm4.437 6.879c1.578 0 2.465-.953 2.465-2.511 0-1.642-.714-2.508-2.338-2.508h-2.097v5.019h1.97zm8.259-6.879h8.351v2.077h-5.884v4.282h5.54v2.078h-5.54v4.93h6.06v2.078h-8.527zm13.389 10.665v.389c0 1.882.823 2.833 2.533 2.833 1.558 0 2.335-1.103 2.335-2.249 0-1.623-.82-2.338-2.205-2.748l-1.689-.584c-2.247-.864-3.221-2.033-3.221-4.241 0-2.81 1.901-4.368 4.803-4.368 3.957 0 4.368 2.466 4.368 4.065v.347h-2.467v-.324c0-1.407-.625-2.229-2.163-2.229-1.061 0-2.075.582-2.075 2.229 0 1.319.671 1.988 2.314 2.617l1.664.606c2.188.778 3.137 1.967 3.137 4.086 0 3.291-1.99 4.653-5.105 4.653-3.827 0-4.693-2.553-4.693-4.715v-.369h2.464v.002zm9.628-2.943c0-5.517 1.558-8.026 5.103-8.026 3.553 0 5.107 2.509 5.107 8.026 0 5.517-1.555 8.025-5.107 8.025-3.546 0-5.103-2.508-5.103-8.025m7.745-.064c0-5.193-1.169-6.101-2.643-6.101-1.469 0-2.637.908-2.637 6.101 0 5.319 1.168 6.23 2.637 6.23 1.474 0 2.643-.911 2.643-6.23m8.004-7.658v11.077c0 1.944.778 2.81 2.27 2.81 1.471 0 2.249-.866 2.249-2.81v-11.077h2.467v10.881c0 3.57-1.773 4.866-4.716 4.866-2.96 0-4.736-1.296-4.736-4.866v-10.881h2.466zm10.421 0h5.452c2.163 0 3.914 1.08 3.914 3.979 0 1.991-.887 3.526-2.574 3.787v.042c1.537.151 2.338.997 2.425 3.16.021.995.045 2.206.086 3.137.043.756.411 1.125.736 1.34h-2.793c-.238-.281-.345-.756-.409-1.362-.086-.931-.063-1.798-.108-2.92-.043-1.687-.56-2.424-2.249-2.424h-2.013v6.706h-2.467v-15.445zm4.436 6.879c1.579 0 2.466-.953 2.466-2.511 0-1.642-.714-2.508-2.336-2.508h-2.099v5.019h1.969zm17.428 3.027v.324c0 2.792-1.123 5.517-4.757 5.517-3.895 0-5.107-2.508-5.107-8.025 0-5.515 1.213-8.026 5.126-8.026 4.393 0 4.652 3.244 4.652 4.846v.281h-2.465v-.259c0-1.427-.433-3.073-2.206-3.008-1.819 0-2.64 1.124-2.64 6.101s.82 6.231 2.64 6.231c2.051 0 2.293-2.296 2.293-3.724v-.259h2.464v.001zm2.81-9.906h8.351v2.077h-5.883v4.282h5.537v2.078h-5.537v4.93h6.06v2.078h-8.528zm13.389 10.665v.389c0 1.882.824 2.833 2.533 2.833 1.556 0 2.334-1.103 2.334-2.249 0-1.623-.821-2.338-2.204-2.748l-1.689-.584c-2.248-.864-3.222-2.033-3.222-4.241 0-2.81 1.902-4.368 4.805-4.368 3.957 0 4.368 2.466 4.368 4.065v.347h-2.468v-.324c0-1.407-.625-2.229-2.162-2.229-1.062 0-2.076.582-2.076 2.229 0 1.319.669 1.988 2.314 2.617l1.666.606c2.185.778 3.135 1.967 3.135 4.086 0 3.291-1.99 4.653-5.105 4.653-3.827 0-4.692-2.553-4.692-4.715v-.369h2.463v.002z" fill="#000"/></g></svg>